<?xml version="1.0" encoding="UTF-8"?>
<svg version="1.1" viewBox="0 0 240 240" xmlns="http://www.w3.org/2000/svg" xmlns:cc="http://creativecommons.org/ns#" xmlns:dc="http://purl.org/dc/elements/1.1/" xmlns:rdf="http://www.w3.org/1999/02/22-rdf-syntax-ns#" xmlns:xlink="http://www.w3.org/1999/xlink">
<defs>
<radialGradient id="a" cx="348.86" cy="103" r="42.813" gradientTransform="matrix(1.5277 1.5277 -1.5277 1.5277 -568.11 251.03)" gradientUnits="userSpaceOnUse">
<stop stop-opacity="0" offset="0"/>
<stop stop-opacity="0" offset=".1875"/>
<stop stop-opacity="0" offset=".375"/>
<stop stop-opacity="0" offset=".75"/>
<stop stop-opacity="0" offset=".875"/>
<stop stop-opacity=".19608" offset=".9375"/>
<stop stop-opacity=".39216" offset="1"/>
</radialGradient>
<linearGradient id="c" x1="549.11" x2="678.93" y1="265.41" y2="265.41" gradientTransform="matrix(1.1983 1.1983 -1.2351 1.2351 -600.49 -122.25)" gradientUnits="userSpaceOnUse">
<stop stop-color="#505050" offset="0"/>
<stop stop-color="#282828" offset="1"/>
</linearGradient>
<linearGradient id="d" x1="549.11" x2="678.93" y1="265.41" y2="265.41" gradientTransform="matrix(1.1003 1.1003 -1.134 1.134 -567.1 -35.217)" gradientUnits="userSpaceOnUse">
<stop stop-color="#111" offset="0"/>
<stop stop-color="#646464" offset="1"/>
</linearGradient>
<linearGradient id="b" x1="549.11" x2="678.93" y1="265.41" y2="265.41" gradientTransform="matrix(1.1656 1.1656 -1.2014 1.2014 -589.34 -93.246)" gradientUnits="userSpaceOnUse">
<stop stop-color="#0f0f0f" offset="0"/>
<stop stop-color="#505050" offset="1"/>
</linearGradient>
</defs>
<metadata>
<rdf:RDF>
<cc:Work rdf:about="">
<dc:format>image/svg+xml</dc:format>
<dc:type rdf:resource="http://purl.org/dc/dcmitype/StillImage"/>
<dc:title/>
</cc:Work>
</rdf:RDF>
</metadata>
<g transform="translate(0 -812.36)">
<g transform="translate(390.23 6.6406)">
<path transform="matrix(2.576 0 0 2.4654 -1111.3 620.71)" d="m369.57 123.71c0 24.865-19.292 45.023-43.089 45.023-23.798 0-43.089-20.157-43.089-45.023 0-24.865 19.292-45.023 43.089-45.023 23.798 0 43.089 20.157 43.089 45.023z" fill="#1e1e1e"/>
<g transform="translate(-658.16 -6.6406)" fill="#fff">
<g transform="translate(-36.861 -46.539)">
<path d="m399.51 901.15-1.6055 4.3535h3.2168l-1.6113-4.3535m-0.66797-1.166h1.3418l3.334 8.748h-1.2305l-0.79687-2.2441h-3.9434l-0.79687 2.2441h-1.248l3.3398-8.748"/>
<path d="m404.79 899.98h1.1836v8.748h-1.1836v-8.748"/>
<path d="m412.48 904.63c0.2539 0.0859 0.49999 0.26953 0.73828 0.55078 0.24218 0.28125 0.48437 0.66797 0.72656 1.1602l1.2012 2.3906h-1.2715l-1.1191-2.2441c-0.28907-0.58594-0.57032-0.97461-0.84375-1.166-0.26954-0.1914-0.63868-0.2871-1.1074-0.28711h-1.2891v3.6973h-1.1836v-8.748h2.6719c0.99999 1e-5 1.7461 0.209 2.2383 0.62696 0.49218 0.41797 0.73827 1.0488 0.73828 1.8926-1e-5 0.55079-0.12891 1.0078-0.38672 1.3711-0.25391 0.36328-0.62501 0.61524-1.1133 0.75586m-2.9648-3.6738v3.1055h1.4883c0.5703 0 0.99999-0.13086 1.2891-0.39258 0.29296-0.26562 0.43945-0.65429 0.43945-1.166 0-0.51171-0.14649-0.89647-0.43945-1.1543-0.28907-0.26171-0.71876-0.39257-1.2891-0.39258h-1.4883"/>
<path d="m421.92 900.27v1.1543c-0.44922-0.21484-0.87305-0.37499-1.2715-0.48047-0.39845-0.10546-0.78321-0.15819-1.1543-0.1582-0.64453 1e-5 -1.1426 0.12501-1.4941 0.375-0.34766 0.25-0.52149 0.60547-0.52149 1.0664 0 0.38673 0.11524 0.6797 0.34571 0.87891 0.23437 0.19532 0.67578 0.35352 1.3242 0.47461l0.71484 0.14648c0.88281 0.16798 1.5332 0.46485 1.9512 0.89063 0.42187 0.42188 0.63281 0.98828 0.63281 1.6992 0 0.84766-0.28516 1.4902-0.85546 1.9277-0.56642 0.4375-1.3984 0.65625-2.4961 0.65625-0.41406 0-0.85547-0.0469-1.3242-0.14062-0.46484-0.0937-0.94726-0.23242-1.4473-0.41602v-1.2188c0.48047 0.26953 0.95117 0.47266 1.4121 0.60938 0.46093 0.13672 0.91406 0.20508 1.3594 0.20507 0.67578 1e-5 1.1973-0.13281 1.5645-0.39843 0.36718-0.26563 0.55077-0.64453 0.55078-1.1367-1e-5 -0.42969-0.13282-0.76562-0.39844-1.0078-0.26172-0.24219-0.69336-0.42383-1.2949-0.54493l-0.72071-0.14062c-0.88281-0.17578-1.5215-0.45117-1.916-0.82617s-0.5918-0.89648-0.5918-1.5645c0-0.77343 0.27149-1.3828 0.81445-1.8281 0.54688-0.4453 1.2988-0.66796 2.2559-0.66797 0.41016 1e-5 0.82812 0.0371 1.2539 0.11133 0.42578 0.0742 0.86132 0.18555 1.3066 0.33398"/>
<path d="m425.47 900.96v3.2871h1.4883c0.55078 0 0.97656-0.14257 1.2774-0.42774 0.30077-0.28515 0.45116-0.6914 0.45117-1.2188-1e-5 -0.52343-0.1504-0.92772-0.45117-1.2129-0.30079-0.28514-0.72657-0.42772-1.2774-0.42773h-1.4883m-1.1836-0.97266h2.6719c0.98047 1e-5 1.7207 0.22267 2.2207 0.66797 0.5039 0.44142 0.75585 1.0898 0.75586 1.9453-1e-5 0.86329-0.25196 1.5156-0.75586 1.957-0.50001 0.44141-1.2402 0.66211-2.2207 0.66211h-1.4883v3.5156h-1.1836v-8.748"/>
<path d="m431.53 899.98h5.5312v0.9961h-4.3477v2.5898h4.166v0.99609h-4.166v3.1699h4.4531v0.99609h-5.6367v-8.748"/>
<path d="m439.13 899.98h5.5312v0.9961h-4.3477v2.5898h4.166v0.99609h-4.166v3.1699h4.4531v0.99609h-5.6367v-8.748"/>
<path d="m447.9 900.96v6.8027h1.4297c1.207 0 2.0898-0.27343 2.6484-0.82031 0.5625-0.54687 0.84375-1.4102 0.84375-2.5898 0-1.1719-0.28125-2.0293-0.84375-2.5723-0.5586-0.54687-1.4414-0.8203-2.6484-0.82031h-1.4297m-1.1836-0.97266h2.4316c1.6953 1e-5 2.9394 0.35353 3.7324 1.0606 0.79296 0.70313 1.1894 1.8047 1.1894 3.3047-1e-5 1.5078-0.39844 2.6152-1.1953 3.3223-0.79688 0.70703-2.0391 1.0606-3.7266 1.0606h-2.4316v-8.748"/>
</g>
<g transform="translate(-26.648 832.68)">
<path d="m394.87 120.77h1.1836v3.6973l3.9258-3.6973h1.5234l-4.3418 4.0781 4.6524 4.6699h-1.5586l-4.2012-4.2129v4.2129h-1.1836v-8.748"/>
<path d="m402.75 120.77h1.5938l3.8789 7.3184v-7.3184h1.1484v8.748h-1.5938l-3.8789-7.3184v7.3184h-1.1484v-8.748"/>
<path d="m415.28 121.57c-0.85938 1e-5 -1.543 0.32032-2.0508 0.96094-0.50391 0.64063-0.75586 1.5137-0.75586 2.6191 0 1.1016 0.25195 1.9727 0.75586 2.6133 0.50781 0.64063 1.1914 0.96094 2.0508 0.96094 0.85937 0 1.5391-0.32031 2.0391-0.96094 0.5039-0.64062 0.75586-1.5117 0.75586-2.6133 0-1.1055-0.25196-1.9785-0.75586-2.6191-0.5-0.64062-1.1797-0.96093-2.0391-0.96094m0-0.96094c1.2266 1e-5 2.207 0.41212 2.9414 1.2363 0.73436 0.82032 1.1016 1.9219 1.1016 3.3047-1e-5 1.3789-0.3672 2.4805-1.1016 3.3047-0.73438 0.82031-1.7148 1.2305-2.9414 1.2305-1.2305 0-2.2148-0.41015-2.9531-1.2305-0.73438-0.82032-1.1016-1.9219-1.1016-3.3047s0.36719-2.4844 1.1016-3.3047c0.73828-0.82421 1.7226-1.2363 2.9531-1.2363"/>
<path d="m419.96 120.77h7.4004v0.99609h-3.1055v7.752h-1.1894v-7.752h-3.1055v-0.99609"/>
<path d="m433.75 121.05v1.1543c-0.44922-0.21483-0.87305-0.37499-1.2715-0.48047-0.39845-0.10546-0.78321-0.15819-1.1543-0.1582-0.64453 1e-5 -1.1426 0.12501-1.4941 0.375-0.34766 0.25001-0.52149 0.60548-0.52149 1.0664 0 0.38672 0.11524 0.67969 0.34571 0.8789 0.23437 0.19532 0.67578 0.35352 1.3242 0.47461l0.71484 0.14649c0.88281 0.16797 1.5332 0.46484 1.9512 0.89062 0.42187 0.42188 0.63281 0.98829 0.63281 1.6992 0 0.84766-0.28516 1.4902-0.85546 1.9277-0.56642 0.4375-1.3984 0.65625-2.4961 0.65625-0.41406 0-0.85547-0.0469-1.3242-0.14062-0.46484-0.0937-0.94726-0.23242-1.4473-0.41602v-1.2188c0.48047 0.26954 0.95117 0.47266 1.4121 0.60938 0.46093 0.13672 0.91406 0.20508 1.3594 0.20508 0.67578 0 1.1973-0.13282 1.5645-0.39844 0.36718-0.26562 0.55077-0.64453 0.55078-1.1367-1e-5 -0.42968-0.13282-0.76562-0.39844-1.0078-0.26172-0.24219-0.69336-0.42383-1.2949-0.54492l-0.72071-0.14063c-0.88281-0.17578-1.5215-0.45117-1.916-0.82617s-0.5918-0.89648-0.5918-1.5644c0-0.77343 0.27148-1.3828 0.81445-1.8281 0.54688-0.4453 1.2988-0.66796 2.2559-0.66797 0.41016 1e-5 0.82812 0.0371 1.2539 0.11133 0.42578 0.0742 0.86132 0.18556 1.3066 0.33398"/>
</g>
</g>
<g transform="translate(-684.37 7.8125)" fill="#fff">
<path d="m439.24 866.59-2.8848 4.2725h2.8848v-4.2725m-0.4375-2.167h2.9258v6.4395h1.456v1.9072h-1.456v1.8594h-2.4883v-1.8594h-4.5254v-2.2559l4.0879-6.0908"/>
<path d="m450.26 869.51c-1e-5 -1.276-0.12078-2.1738-0.36231-2.6934-0.23698-0.52408-0.63802-0.78613-1.2031-0.78614-0.56511 1e-5 -0.96843 0.26206-1.21 0.78614-0.24154 0.51954-0.36231 1.4173-0.36231 2.6934 0 1.2897 0.12077 2.1989 0.36231 2.7275 0.24153 0.52864 0.64485 0.79297 1.21 0.79296 0.56054 1e-5 0.96158-0.26432 1.2031-0.79296 0.24153-0.52865 0.3623-1.4378 0.36231-2.7275m2.6318 0.0205c-1e-5 1.6908-0.3646 2.9964-1.0938 3.917-0.72918 0.91601-1.7637 1.374-3.1035 1.374-1.3444 0-2.3812-0.45801-3.1104-1.374-0.72917-0.92057-1.0938-2.2262-1.0938-3.917 0-1.6953 0.36458-3.001 1.0938-3.917 0.72916-0.92056 1.766-1.3808 3.1104-1.3809 1.3398 1e-5 2.3743 0.4603 3.1035 1.3809 0.72915 0.91603 1.0937 2.2217 1.0938 3.917"/>
<path d="m460.78 898.32c-0.46029 0-0.80664 0.15039-1.0391 0.45117-0.22787 0.29623-0.3418 0.74284-0.3418 1.3398 0 0.59701 0.11393 1.0459 0.3418 1.3467 0.23242 0.29623 0.57877 0.44434 1.0391 0.44434 0.46484 0 0.81119-0.14811 1.0391-0.44434 0.23242-0.30078 0.34863-0.74967 0.34864-1.3467-1e-5 -0.597-0.11622-1.0436-0.34864-1.3398-0.22787-0.30078-0.57422-0.45117-1.0391-0.45117m3.2539-4.9014v1.8867c-0.43295-0.20507-0.84083-0.35546-1.2236-0.45117-0.38282-0.10026-0.75652-0.15039-1.1211-0.1504-0.78386 1e-5 -1.3945 0.21876-1.832 0.65625-0.4375 0.43295-0.69271 1.0778-0.76562 1.9346 0.30077-0.2233 0.62662-0.38964 0.97753-0.49902 0.35091-0.11392 0.73372-0.17089 1.1484-0.1709 1.0436 1e-5 1.8844 0.30535 2.5225 0.91602 0.64257 0.61068 0.96386 1.4105 0.96387 2.3994-1e-5 1.0938-0.35776 1.971-1.0732 2.6318-0.7155 0.65625-1.6748 0.98437-2.8779 0.98437-1.3262 0-2.3538-0.44661-3.083-1.3398-0.72461-0.89778-1.0869-2.1693-1.0869-3.8144 0-1.6862 0.42382-3.0101 1.2715-3.9717 0.85221-0.96614 2.0189-1.4492 3.5-1.4492 0.4694 1e-5 0.92512 0.0365 1.3672 0.10937 0.44205 0.0729 0.87955 0.18231 1.3125 0.32813"/>
<path d="m471.89 898.24c-1e-5 -1.276-0.12077-2.1738-0.3623-2.6934-0.23699-0.52408-0.63803-0.78612-1.2031-0.78613-0.56511 1e-5 -0.96843 0.26205-1.21 0.78613-0.24154 0.51954-0.36231 1.4173-0.3623 2.6934-1e-5 1.2897 0.12076 2.1989 0.3623 2.7275 0.24153 0.52865 0.64485 0.79297 1.21 0.79297 0.56054 0 0.96158-0.26432 1.2031-0.79297 0.24153-0.52864 0.36229-1.4378 0.3623-2.7275m2.6318 0.0205c-1e-5 1.6908-0.3646 2.9964-1.0938 3.917-0.72918 0.91602-1.7637 1.374-3.1035 1.374-1.3444 0-2.3812-0.458-3.1104-1.374-0.72917-0.92057-1.0938-2.2262-1.0938-3.917 0-1.6953 0.36458-3.001 1.0938-3.917 0.72916-0.92057 1.766-1.3808 3.1104-1.3809 1.3398 1e-5 2.3743 0.46029 3.1035 1.3809 0.72915 0.91602 1.0937 2.2217 1.0938 3.917"/>
<path d="m461.83 937.17c-0.49219 1e-5 -0.87044 0.13445-1.1348 0.40332-0.26433 0.26889-0.39649 0.65398-0.39649 1.1553s0.13216 0.88639 0.39649 1.1553c0.26432 0.26432 0.64257 0.39648 1.1348 0.39648 0.48763 0 0.86133-0.13216 1.1211-0.39648 0.25976-0.26888 0.38964-0.65397 0.38965-1.1553-1e-5 -0.50586-0.12989-0.89095-0.38965-1.1553-0.25977-0.26887-0.63347-0.40331-1.1211-0.40332m-1.9209-0.86816c-0.6198-0.18685-1.0869-0.47395-1.4014-0.86133-0.31446-0.38736-0.47168-0.87044-0.47168-1.4492 0-0.86132 0.32129-1.5176 0.96387-1.9688 0.64257-0.45116 1.5859-0.67675 2.8301-0.67676 1.235 1e-5 2.1738 0.2256 2.8164 0.67676 0.64257 0.44662 0.96386 1.1029 0.96387 1.9688-1e-5 0.57878-0.15952 1.0619-0.47852 1.4492-0.31446 0.38738-0.78158 0.67448-1.4014 0.86133 0.69271 0.19141 1.2145 0.50358 1.5654 0.93652 0.35546 0.42839 0.5332 0.97071 0.53321 1.627-1e-5 1.0117-0.33725 1.7774-1.0117 2.2969-0.66993 0.51497-1.6657 0.77246-2.9873 0.77246-1.3262 0-2.3288-0.25749-3.0078-0.77246-0.67448-0.51953-1.0117-1.2852-1.0117-2.2969 0-0.65624 0.17546-1.1986 0.52637-1.627 0.35547-0.43294 0.87956-0.74511 1.5723-0.93652m0.61523-2.044c0 0.40561 0.11165 0.71778 0.33496 0.93653 0.22786 0.21875 0.55143 0.32813 0.9707 0.32812 0.41016 1e-5 0.72689-0.10937 0.9502-0.32812 0.2233-0.21875 0.33495-0.53092 0.33496-0.93653-1e-5 -0.40559-0.11166-0.71548-0.33496-0.92969-0.22331-0.21874-0.54004-0.32811-0.9502-0.32812-0.41927 1e-5 -0.74284 0.10938-0.9707 0.32812-0.22331 0.21876-0.33496 0.52866-0.33496 0.92969"/>
<path d="m473.13 936.62c-1e-5 -1.276-0.12078-2.1738-0.36231-2.6934-0.23698-0.52408-0.63802-0.78613-1.2031-0.78614-0.56511 1e-5 -0.96843 0.26206-1.21 0.78614-0.24154 0.51954-0.36231 1.4173-0.36231 2.6934 0 1.2897 0.12077 2.1989 0.36231 2.7275 0.24153 0.52864 0.64485 0.79297 1.21 0.79296 0.56054 1e-5 0.96158-0.26432 1.2031-0.79296 0.24153-0.52865 0.3623-1.4378 0.36231-2.7275m2.6318 0.0205c0 1.6908-0.36459 2.9964-1.0938 3.917-0.72917 0.91601-1.7637 1.374-3.1035 1.374-1.3444 0-2.3812-0.45801-3.1104-1.374-0.72917-0.92057-1.0938-2.2262-1.0938-3.917 0-1.6953 0.36458-3.001 1.0938-3.917 0.72916-0.92056 1.7659-1.3808 3.1104-1.3809 1.3398 1e-5 2.3743 0.4603 3.1035 1.3809 0.72916 0.91603 1.0938 2.2217 1.0938 3.917"/>
<path d="m429.8 968.24h2.3242v-6.5967l-2.3858 0.49219v-1.791l2.3721-0.49218h2.502v8.3877h2.3242v1.8184h-7.1367v-1.8184"/>
<path d="m444.33 964.94c-1e-5 -1.276-0.12077-2.1738-0.3623-2.6934-0.23699-0.52408-0.63803-0.78612-1.2031-0.78613-0.56511 1e-5 -0.96843 0.26205-1.21 0.78613-0.24154 0.51954-0.36231 1.4173-0.3623 2.6934-1e-5 1.2897 0.12076 2.1989 0.3623 2.7275 0.24153 0.52865 0.64485 0.79297 1.21 0.79297 0.56054 0 0.96158-0.26432 1.2031-0.79297 0.24153-0.52864 0.36229-1.4378 0.3623-2.7275m2.6318 0.0205c-1e-5 1.6908-0.36459 2.9964-1.0938 3.917-0.72918 0.91601-1.7637 1.374-3.1035 1.374-1.3444 0-2.3812-0.45801-3.1104-1.374-0.72917-0.92057-1.0938-2.2262-1.0938-3.917 0-1.6953 0.36458-3.001 1.0938-3.917 0.72916-0.92056 1.766-1.3808 3.1104-1.3808 1.3398 1e-5 2.3743 0.46029 3.1035 1.3808 0.72916 0.91603 1.0937 2.2217 1.0938 3.917"/>
<path d="m454.07 964.94c-1e-5 -1.276-0.12078-2.1738-0.36231-2.6934-0.23698-0.52408-0.63802-0.78612-1.2031-0.78613-0.56511 1e-5 -0.96843 0.26205-1.21 0.78613-0.24154 0.51954-0.36231 1.4173-0.36231 2.6934 0 1.2897 0.12077 2.1989 0.36231 2.7275 0.24153 0.52865 0.64485 0.79297 1.21 0.79297 0.56054 0 0.96158-0.26432 1.2031-0.79297 0.24153-0.52864 0.3623-1.4378 0.36231-2.7275m2.6318 0.0205c-1e-5 1.6908-0.36459 2.9964-1.0938 3.917-0.72917 0.91601-1.7637 1.374-3.1035 1.374-1.3444 0-2.3812-0.45801-3.1104-1.374-0.72916-0.92057-1.0938-2.2262-1.0938-3.917 0-1.6953 0.36459-3.001 1.0938-3.917 0.72917-0.92056 1.766-1.3808 3.1104-1.3808 1.3398 1e-5 2.3743 0.46029 3.1035 1.3808 0.72916 0.91603 1.0937 2.2217 1.0938 3.917"/>
<path d="m389.51 976.44h2.3242v-6.5967l-2.3857 0.49218v-1.791l2.3721-0.49219h2.502v8.3877h2.3242v1.8184h-7.1367v-1.8184"/>
<path d="m401.64 976.32h4.4912v1.9346h-7.417v-1.9346l3.7256-3.2881c0.33268-0.30078 0.57877-0.59472 0.73828-0.88184 0.1595-0.2871 0.23925-0.5856 0.23926-0.8955-1e-5 -0.47851-0.16179-0.8636-0.48535-1.1553-0.31902-0.29166-0.74512-0.43749-1.2783-0.4375-0.41016 1e-5 -0.85906 0.0889-1.3467 0.2666-0.48763 0.17319-1.0094 0.43295-1.5654 0.7793v-2.2422c0.59244-0.19595 1.1781-0.34406 1.7568-0.44433 0.57878-0.10481 1.1462-0.15722 1.7022-0.15723 1.2214 1e-5 2.1693 0.26889 2.8438 0.80664 0.67903 0.53777 1.0186 1.2874 1.0186 2.249-1e-5 0.556-0.14357 1.0755-0.43067 1.5586-0.28711 0.47852-0.89095 1.1211-1.8115 1.9277l-2.1807 1.9141"/>
<path d="m413.78 973.15c-1e-5 -1.276-0.12077-2.1738-0.3623-2.6934-0.23699-0.52408-0.63803-0.78612-1.2031-0.78613-0.56511 1e-5 -0.96843 0.26205-1.21 0.78613-0.24154 0.51954-0.36231 1.4173-0.36231 2.6934 0 1.2897 0.12077 2.1989 0.36231 2.7275 0.24153 0.52865 0.64485 0.79297 1.21 0.79297 0.56054 0 0.96158-0.26432 1.2031-0.79297 0.24153-0.52864 0.36229-1.4378 0.3623-2.7275m2.6318 0.0205c-1e-5 1.6908-0.3646 2.9964-1.0938 3.917-0.72918 0.91602-1.7637 1.374-3.1035 1.374-1.3444 0-2.3812-0.45801-3.1104-1.374-0.72917-0.92057-1.0938-2.2262-1.0938-3.917 0-1.6953 0.36458-3.001 1.0938-3.917 0.72916-0.92056 1.766-1.3808 3.1104-1.3809 1.3398 1e-5 2.3743 0.4603 3.1035 1.3809 0.72915 0.91602 1.0937 2.2217 1.0938 3.917"/>
<path d="m360.31 952.93h2.3242v-6.5967l-2.3857 0.49219v-1.791l2.3721-0.49219h2.502v8.3877h2.3242v1.8184h-7.1367v-1.8184"/>
<path d="m373.56 946.71-2.8848 4.2725h2.8848v-4.2725m-0.4375-2.167h2.9258v6.4395h1.456v1.9072h-1.456v1.8594h-2.4883v-1.8594h-4.5254v-2.2559l4.0879-6.0908"/>
<path d="m384.58 949.64c-1e-5 -1.276-0.12078-2.1738-0.36231-2.6934-0.23698-0.52408-0.63802-0.78613-1.2031-0.78614-0.56511 1e-5 -0.96843 0.26206-1.21 0.78614-0.24154 0.51954-0.36231 1.4173-0.36231 2.6934 0 1.2897 0.12077 2.1989 0.36231 2.7275 0.24153 0.52864 0.64485 0.79297 1.21 0.79296 0.56054 1e-5 0.96158-0.26432 1.2031-0.79296 0.24153-0.52865 0.3623-1.4378 0.36231-2.7275m2.6318 0.0205c0 1.6908-0.36459 2.9964-1.0938 3.917-0.72917 0.91601-1.7637 1.374-3.1035 1.374-1.3444 0-2.3812-0.45801-3.1104-1.374-0.72917-0.92057-1.0938-2.2262-1.0938-3.917 0-1.6953 0.36458-3.001 1.0938-3.917 0.72916-0.92056 1.7659-1.3808 3.1104-1.3809 1.3398 1e-5 2.3743 0.4603 3.1035 1.3809 0.72916 0.91603 1.0938 2.2217 1.0938 3.917"/>
<path d="m349.86 927.71h2.3242v-6.5967l-2.3857 0.49218v-1.791l2.3721-0.49219h2.502v8.3877h2.3242v1.8184h-7.1367v-1.8184"/>
<path d="m363.02 924.49c-0.46029 1e-5 -0.80664 0.1504-1.0391 0.45117-0.22787 0.29623-0.3418 0.74284-0.3418 1.3398 0 0.597 0.11393 1.0459 0.3418 1.3467 0.23242 0.29622 0.57877 0.44433 1.0391 0.44433 0.46484 0 0.8112-0.14811 1.0391-0.44433 0.23241-0.30078 0.34862-0.74968 0.34863-1.3467-1e-5 -0.59701-0.11622-1.0436-0.34863-1.3398-0.22787-0.30077-0.57423-0.45116-1.0391-0.45117m3.2539-4.9014v1.8867c-0.43295-0.20507-0.84083-0.35546-1.2236-0.45117-0.38282-0.10025-0.75652-0.15038-1.1211-0.15039-0.78386 1e-5 -1.3945 0.21876-1.832 0.65625-0.4375 0.43295-0.69271 1.0778-0.76562 1.9346 0.30078-0.2233 0.62662-0.38964 0.97754-0.49902 0.3509-0.11393 0.73372-0.1709 1.1484-0.1709 1.0436 0 1.8844 0.30534 2.5225 0.91601 0.64256 0.61069 0.96385 1.4105 0.96386 2.3994-1e-5 1.0938-0.35775 1.971-1.0732 2.6318-0.7155 0.65625-1.6748 0.98438-2.8779 0.98438-1.3262 0-2.3538-0.44662-3.083-1.3398-0.72461-0.89778-1.0869-2.1693-1.0869-3.8144 0-1.6862 0.42383-3.0101 1.2715-3.9717 0.85221-0.96613 2.0189-1.4492 3.5-1.4492 0.4694 1e-5 0.92513 0.0365 1.3672 0.10938 0.44205 0.0729 0.87955 0.1823 1.3125 0.32812"/>
<path d="m374.13 924.42c0-1.276-0.12077-2.1738-0.3623-2.6934-0.23699-0.52408-0.63803-0.78613-1.2031-0.78614-0.56511 1e-5 -0.96843 0.26206-1.21 0.78614-0.24154 0.51953-0.36231 1.4173-0.3623 2.6934-1e-5 1.2897 0.12076 2.1989 0.3623 2.7275 0.24153 0.52865 0.64485 0.79297 1.21 0.79297 0.56054 0 0.96159-0.26432 1.2031-0.79297 0.24153-0.52864 0.3623-1.4378 0.3623-2.7275m2.6318 0.0205c-1e-5 1.6908-0.36459 2.9964-1.0938 3.917-0.72918 0.91601-1.7637 1.374-3.1035 1.374-1.3444 0-2.3812-0.45801-3.1104-1.374-0.72917-0.92058-1.0938-2.2262-1.0938-3.917 0-1.6953 0.36458-3.001 1.0938-3.917 0.72917-0.92056 1.766-1.3808 3.1104-1.3809 1.3398 1e-5 2.3743 0.4603 3.1035 1.3809 0.72916 0.91602 1.0937 2.2217 1.0938 3.917"/>
<path d="m352.4 904.27h2.3242v-6.5967l-2.3858 0.49218v-1.791l2.3721-0.49219h2.502v8.3877h2.3242v1.8184h-7.1367v-1.8184"/>
<path d="m365.37 901.52c-0.49219 0-0.87045 0.13444-1.1348 0.40332s-0.39648 0.65398-0.39648 1.1553c0 0.50131 0.13216 0.8864 0.39648 1.1553 0.26432 0.26432 0.64258 0.39648 1.1348 0.39648 0.48763 0 0.86132-0.13216 1.1211-0.39648 0.25976-0.26888 0.38965-0.65397 0.38965-1.1553 0-0.50585-0.12989-0.89094-0.38965-1.1553-0.25977-0.26888-0.63346-0.40332-1.1211-0.40332m-1.9209-0.86816c-0.61979-0.18685-1.0869-0.47396-1.4014-0.86133-0.31445-0.38737-0.47168-0.87044-0.47167-1.4492-1e-5 -0.86132 0.32128-1.5176 0.96386-1.9688 0.64258-0.45116 1.5859-0.67675 2.8301-0.67676 1.235 1e-5 2.1738 0.2256 2.8164 0.67676 0.64257 0.44662 0.96386 1.1029 0.96386 1.9688 0 0.57878-0.15951 1.0618-0.47851 1.4492-0.31446 0.38737-0.78158 0.67448-1.4014 0.86133 0.6927 0.19141 1.2145 0.50358 1.5654 0.93652 0.35546 0.42839 0.5332 0.97071 0.5332 1.627 0 1.0117-0.33724 1.7774-1.0117 2.2969-0.66993 0.51497-1.6657 0.77246-2.9873 0.77246-1.3262 0-2.3288-0.25749-3.0078-0.77246-0.67448-0.51953-1.0117-1.2852-1.0117-2.2969 0-0.65624 0.17545-1.1986 0.52637-1.627 0.35546-0.43294 0.87955-0.74511 1.5723-0.93652m0.61524-2.044c-1e-5 0.40561 0.11165 0.71778 0.33496 0.93652 0.22786 0.21876 0.55143 0.32814 0.9707 0.32813 0.41015 1e-5 0.72688-0.10937 0.9502-0.32813 0.2233-0.21874 0.33495-0.53091 0.33496-0.93652-1e-5 -0.40559-0.11166-0.71549-0.33496-0.92969-0.22332-0.21874-0.54005-0.32811-0.9502-0.32812-0.41927 1e-5 -0.74284 0.10938-0.9707 0.32812-0.22331 0.21876-0.33497 0.52866-0.33496 0.92969"/>
<path d="m376.67 900.98c-1e-5 -1.276-0.12078-2.1738-0.36231-2.6934-0.23698-0.52408-0.63803-0.78613-1.2031-0.78614-0.56511 1e-5 -0.96843 0.26206-1.21 0.78614-0.24154 0.51953-0.3623 1.4173-0.3623 2.6934 0 1.2897 0.12076 2.1989 0.3623 2.7275 0.24154 0.52865 0.64486 0.79297 1.21 0.79297 0.56054 0 0.96158-0.26432 1.2031-0.79297 0.24153-0.52864 0.3623-1.4378 0.36231-2.7275m2.6318 0.0205c-1e-5 1.6908-0.36459 2.9964-1.0938 3.917-0.72917 0.91601-1.7637 1.374-3.1035 1.374-1.3444 0-2.3812-0.45801-3.1104-1.374-0.72916-0.92058-1.0938-2.2262-1.0938-3.917 0-1.6953 0.36459-3.001 1.0938-3.917 0.72917-0.92056 1.766-1.3808 3.1104-1.3809 1.3398 1e-5 2.3743 0.4603 3.1035 1.3809 0.72916 0.91602 1.0937 2.2217 1.0938 3.917"/>
<path d="m366.32 883.45h4.4912v1.9346h-7.417v-1.9346l3.7256-3.2881c0.33267-0.30078 0.57877-0.59473 0.73828-0.88184 0.1595-0.2871 0.23925-0.58561 0.23926-0.89551-1e-5 -0.47851-0.16179-0.8636-0.48536-1.1553-0.31901-0.29166-0.74512-0.43749-1.2783-0.4375-0.41016 1e-5 -0.85905 0.0889-1.3467 0.2666-0.48763 0.17318-1.0094 0.43295-1.5654 0.7793v-2.2422c0.59244-0.19595 1.178-0.34407 1.7568-0.44434 0.57877-0.1048 1.1462-0.15721 1.7022-0.15722 1.2214 1e-5 2.1693 0.26889 2.8438 0.80664 0.67903 0.53777 1.0186 1.2874 1.0186 2.249 0 0.556-0.14356 1.0755-0.43066 1.5586-0.28712 0.47853-0.89096 1.1211-1.8115 1.9277l-2.1807 1.9141"/>
<path d="m378.46 880.27c-1e-5 -1.276-0.12078-2.1738-0.36231-2.6934-0.23698-0.52408-0.63802-0.78612-1.2031-0.78613-0.56511 1e-5 -0.96843 0.26205-1.21 0.78613-0.24154 0.51954-0.36231 1.4173-0.36231 2.6934 0 1.2897 0.12077 2.1989 0.36231 2.7275 0.24153 0.52865 0.64485 0.79297 1.21 0.79297 0.56054 0 0.96158-0.26432 1.2031-0.79297 0.24153-0.52864 0.3623-1.4378 0.36231-2.7275m2.6318 0.0205c-1e-5 1.6908-0.36459 2.9964-1.0938 3.917-0.72917 0.91602-1.7637 1.374-3.1035 1.374-1.3444 0-2.3812-0.458-3.1104-1.374-0.72917-0.92057-1.0938-2.2262-1.0938-3.917 0-1.6953 0.36458-3.001 1.0938-3.917 0.72916-0.92057 1.7659-1.3808 3.1104-1.3809 1.3398 1e-5 2.3743 0.46029 3.1035 1.3809 0.72916 0.91602 1.0937 2.2217 1.0938 3.917"/>
<path d="m388.19 880.27c0-1.276-0.12077-2.1738-0.3623-2.6934-0.23699-0.52408-0.63803-0.78612-1.2031-0.78613-0.56511 1e-5 -0.96843 0.26205-1.21 0.78613-0.24154 0.51954-0.36231 1.4173-0.3623 2.6934-1e-5 1.2897 0.12076 2.1989 0.3623 2.7275 0.24153 0.52865 0.64485 0.79297 1.21 0.79297 0.56054 0 0.96159-0.26432 1.2031-0.79297 0.24153-0.52864 0.3623-1.4378 0.3623-2.7275m2.6318 0.0205c-1e-5 1.6908-0.36459 2.9964-1.0938 3.917-0.72918 0.91602-1.7637 1.374-3.1035 1.374-1.3444 0-2.3812-0.458-3.1104-1.374-0.72917-0.92057-1.0938-2.2262-1.0938-3.917 0-1.6953 0.36458-3.001 1.0938-3.917 0.72917-0.92057 1.766-1.3808 3.1104-1.3809 1.3398 1e-5 2.3743 0.46029 3.1035 1.3809 0.72916 0.91602 1.0937 2.2217 1.0938 3.917"/>
</g>
<g transform="translate(-674.61 -6.6406)">
<path d="m455.81 861.57-5.875 8.0938c32.083 23.31 41.377 67.089 21.562 101.44l8.6562 5c22.392-38.784 11.887-88.208-24.344-114.53z" fill="#fff"/>
<path d="m459.19 877.57-7.0938 7.0625c5e-3 5e-3 -5e-3 0.0259 0 0.0312 26.344 26.362 26.355 69.082 0 95.438-21.603 21.603-55.011 25.994-81.469 10.719l-5 8.6562c30.378 17.538 68.759 12.491 93.562-12.312 30.266-30.266 30.266-79.328 0-109.59z" fill="#00c300"/>
<path d="m337.81 943.63-9.8438 1.6562c3.852 22.774 17.653 42.639 37.656 54.188l5-8.6562c-17.422-10.059-29.458-27.352-32.812-47.188z" fill="#f0f000"/>
</g>
<rect transform="matrix(-.16677 -.986 .986 -.16677 0 0)" x="-868.69" y="-513.33" width="2" height="25" fill="#f00"/>
<g fill="#fff">
<rect transform="matrix(-.34202 .93969 -.93969 -.34202 0 0)" x="961.32" y="-155.18" width="2" height="25"/>
<rect transform="matrix(-.64279 .76604 -.76604 -.64279 0 0)" x="881.85" y="-480.53" width="2" height="25"/>
<rect transform="matrix(-.86603 .5 -.5 -.86603 0 0)" x="695.89" y="-759.08" width="2" height="25"/>
<rect transform="matrix(-.98481 .17365 -.17365 -.98481 0 0)" x="425.88" y="-957.23" width="2" height="25"/>
<rect transform="matrix(-.98481 -.17365 .17365 -.98481 0 0)" x="104.38" y="-1051.1" width="2" height="25"/>
<rect transform="matrix(-.86603 -.5 .5 -.86603 0 0)" x="-229.83" y="-1029.3" width="2" height="25"/>
<rect transform="matrix(-.17365 .98481 -.98481 -.17365 0 0)" x="958.08" y="12.879" width="1" height="20"/>
<rect transform="matrix(-.5 .86603 -.86603 -.5 0 0)" x="936.32" y="-321.33" width="1" height="20"/>
<rect transform="matrix(-.76604 .64279 -.64279 -.76604 0 0)" x="801.55" y="-627.94" width="1" height="20"/>
<rect transform="matrix(-.93969 .34202 -.34202 -.93969 0 0)" x="570.05" y="-869.97" width="1" height="20"/>
<rect transform="scale(-1)" x="269.73" y="-1018.2" width="1" height="20"/>
<rect transform="matrix(-.93969 -.34202 .34202 -.93969 0 0)" x="-63.178" y="-1054.8" width="1" height="20"/>
<rect transform="matrix(-.66913 -.74314 .74314 -.66913 0 0)" x="-508.12" y="-912.75" width="2" height="25"/>
<rect transform="matrix(-.40674 -.91355 .91355 -.40674 0 0)" x="-736.77" y="-715.9" width="2" height="25"/>
<rect transform="matrix(-.10453 -.99452 .99452 -.10453 0 0)" x="-893.4" y="-458.02" width="2" height="25"/>
<rect transform="matrix(-.77715 -.62932 .62932 -.77715 0 0)" x="-373.06" y="-981.98" width="1" height="20"/>
<rect transform="matrix(-.54464 -.83867 .83867 -.54464 0 0)" x="-629.7" y="-823.32" width="1" height="20"/>
<rect transform="matrix(-.25882 -.96593 .96593 -.25882 0 0)" x="-824.74" y="-593.12" width="1" height="20"/>
<rect transform="matrix(.10453 -.99452 .99452 .10453 0 0)" x="-949.9" y="-264.49" width="2" height="25"/>
<rect transform="matrix(.30902 -.95106 .95106 .30902 0 0)" x="-964.92" y="-63.444" width="2" height="25"/>
<rect transform="matrix(.5 -.86603 .86603 .5 0 0)" x="-937.82" y="136.33" width="2" height="25"/>
<rect transform="matrix(.66913 -.74314 .74314 .66913 0 0)" x="-869.77" y="326.11" width="2" height="25"/>
<rect transform="rotate(-90)" x="-926.22" y="-362.73" width="1" height="20"/>
<rect transform="matrix(.20791 -.97815 .97815 .20791 0 0)" x="-962.18" y="-164.36" width="1" height="20"/>
<rect transform="matrix(.40674 -.91355 .91355 .40674 0 0)" x="-956.1" y="37.154" width="1" height="20"/>
<rect transform="matrix(.58779 -.80902 .80902 .58779 0 0)" x="-908.26" y="233" width="1" height="20"/>
<rect transform="matrix(.80902 .58779 -.58779 .80902 0 0)" x="324.5" y="815.26" width="2" height="25"/>
<rect transform="matrix(.70711 .70711 -.70711 .70711 0 0)" x="463" y="753.17" width="1" height="20"/>
<rect transform="matrix(.45399 .89101 -.89101 .45399 0 0)" x="701.64" y="568.55" width="1" height="20"/>
<rect transform="matrix(.15643 .98769 -.98769 .15643 0 0)" x="871.55" y="319.22" width="1" height="20"/>
<rect transform="matrix(.58779 .80902 -.80902 .58779 0 0)" x="589.08" y="670.25" width="2" height="25"/>
<rect transform="matrix(.30902 .95106 -.95106 .30902 0 0)" x="795.91" y="450.57" width="2" height="25"/>
<rect transform="rotate(90)" x="924.72" y="177.73" width="2" height="25"/>
</g>
</g>
<path d="m123.07 880.24-1.8396-3.181v-27.479l-1.2264-3.3726-1.2264 3.3726v27.403l-1.8396 3.2002v0.0575 42.925h6.1321v-42.925z" fill="#fff" stroke="#323232" stroke-width=".3"/>
<rect transform="rotate(90)" x="923.16" y="-123.07" width="9.1981" height="6.1321" fill="#1e1e1e" stroke="#323232" stroke-width=".3"/>
<path d="m127.05 969.15c0-2.7916-1.6328-5.2001-3.9858-6.3429v-27.901c0.5787-0.69189 0.91981-1.5761 0.91981-2.5486 0-2.2013-1.7845-3.9858-3.9858-3.9858-2.2013 0-3.9858 1.7845-3.9858 3.9858 0 0.97255 0.3411 1.8568 0.91981 2.5486v27.901c-2.353 1.1428-3.9858 3.5513-3.9858 6.3429 0 3.8946 3.1572 7.0519 7.0519 7.0519 3.8946 0 7.0519-3.1572 7.0519-7.0519z" enable-background="new" fill="#1e1e1e" stroke="#323232" stroke-width=".3"/>
<path transform="matrix(0 .54675 -.57278 0 247.28 811.34)" d="m222.48 222.22c0 0.59126-0.50214 1.0706-1.1216 1.0706-0.61941 0-1.1216-0.47932-1.1216-1.0706 0-0.59127 0.50214-1.0706 1.1216-1.0706 0.61942 0 1.1216 0.47931 1.1216 1.0706z" fill="#323232"/>
<g transform="translate(312.5 -8.9844)">
<path d="m-192.5 848.85c-23.673 0-47.344 9.032-65.406 27.094-36.124 36.124-36.124 94.689 0 130.81 36.124 36.124 94.689 36.124 130.81 0 36.124-36.124 36.124-94.689 0-130.81-18.062-18.062-41.733-27.094-65.406-27.094zm0 17.5c41.421 0 75 33.579 75 75 0 41.421-33.579 75-75 75-41.421 0-75-33.579-75-75 0-41.421 33.579-75 75-75z" fill="url(#a)"/>
<path d="m-114.01 862.86c-43.348-43.348-113.63-43.348-156.98 0-43.348 43.348-43.348 113.63-2e-5 156.98 43.348 43.348 113.63 43.348 156.98-1e-4 43.348-43.348 43.348-113.63 0-156.98zm-1.0607 1.0607c42.762 42.762 42.762 112.09 0 154.86-42.762 42.762-112.09 42.762-154.86 0-42.762-42.762-42.762-112.09 2e-5 -154.86 42.762-42.762 112.09-42.762 154.86 0z" fill="#323232"/>
<path d="m-114.72 863.56c-42.958-42.958-112.61-42.958-155.56 0-42.958 42.958-42.958 112.61-3e-5 155.56 42.958 42.958 112.61 42.958 155.56 0 42.958-42.958 42.958-112.61 0-155.56zm-2.4749 2.4749c41.591 41.591 41.591 109.02 0 150.61-41.591 41.591-109.02 41.591-150.61 0-41.591-41.591-41.591-109.02 1e-5 -150.61 41.591-41.591 109.02-41.591 150.61 0z" fill="url(#c)"/>
<path d="m-121.08 869.93c-39.443-39.443-103.39-39.443-142.84 0-39.443 39.443-39.443 103.39 0 142.84 39.443 39.443 103.39 39.443 142.84 0 39.443-39.443 39.443-103.39 0-142.84zm-6.364 6.3639c35.928 35.928 35.928 94.18 0 130.11-35.928 35.928-94.179 35.928-130.11 0-35.928-35.928-35.928-94.18 0-130.11 35.928-35.928 94.179-35.928 130.11 0z" fill="url(#d)"/>
<path d="m-192.49 834.38c-27.384 0-54.794 10.451-75.688 31.344-38.398 38.398-41.483 98.703-9.3125 140.66 0.072 0.095 0.14595 0.187 0.21875 0.2813 0.2727 0.3533 0.5346 0.7118 0.8125 1.0625 0.2863 0.3618 0.55295 0.7358 0.84375 1.0937 0.5982 0.7352 1.223 1.4647 1.8438 2.1875 0.019 0.022 0.0436 0.043 0.0625 0.062 0.5733 0.6665 1.1578 1.3133 1.75 1.9688 0.2374 0.263 0.47895 0.5207 0.71875 0.7813 0.3819 0.4145 0.76675 0.8402 1.1562 1.25 0.1423 0.1497 0.2944 0.2886 0.4375 0.4375 0.4933 0.5131 0.96325 1.0257 1.4688 1.5312 0.099 0.099 0.2137 0.1833 0.3125 0.2813 0.3561 0.3533 0.7015 0.7141 1.0625 1.0625 0.463 0.4471 0.93715 0.8755 1.4062 1.3125 0.0589 0.056 0.1278 0.1009 0.1875 0.1562 0.4088 0.3792 0.80555 0.7533 1.2188 1.125 0.6179 0.5552 1.2444 1.1155 1.875 1.6563 0.626 0.5368 1.2678 1.0712 1.9062 1.5937 0.0631 0.051 0.1249 0.1052 0.1875 0.1563 0.5077 0.4136 1.0158 0.8143 1.5312 1.2187 0.6553 0.5146 1.3042 1.0342 1.9688 1.5313 0.2019 0.1511 0.39075 0.319 0.59375 0.4687 0.048 0.036 0.10775 0.058 0.15625 0.094 0.6966 0.5117 1.4155 1.0051 2.125 1.5 0.7553 0.5273 1.5156 1.0571 2.2812 1.5625 0.07 0.046 0.14855 0.079 0.21875 0.125 1.6987 1.116 3.4104 2.1785 5.1562 3.1875 0.8729 0.5046 1.7413 0.991 2.625 1.4687 0.9002 0.4866 1.8078 0.9474 2.7188 1.4063 0.2411 0.1216 0.47685 0.2555 0.71875 0.375 0.6658 0.3298 1.3265 0.6524 2 0.9687 0.9159 0.4293 1.8248 0.8481 2.75 1.25h0.0312c0.7898 0.3428 1.5788 0.6772 2.375 1 0.1474 0.06 0.2899 0.1283 0.4375 0.1875 0.6595 0.2639 1.3367 0.4997 2 0.75 0.6507 0.246 1.3122 0.4852 1.9688 0.7188 0.2607 0.093 0.52015 0.1908 0.78125 0.2812 0.7139 0.2478 1.4356 0.4858 2.1562 0.7188 0.8207 0.2654 1.6396 0.5353 2.4688 0.7812 0.0641 0.019 0.1238 0.044 0.1875 0.062 0.7065 0.2081 1.4124 0.4 2.125 0.5938 0.8831 0.2397 1.7684 0.4708 2.6562 0.6875 0.6757 0.1652 1.3508 0.3164 2.0312 0.4687 0.2083 0.046 0.4167 0.111 0.625 0.1563 0.7944 0.1727 1.6054 0.3138 2.4062 0.4687 0.7571 0.1464 1.5186 0.3071 2.2812 0.4375 0.083 0.014 0.1674 0.017 0.25 0.031 0.6572 0.1108 1.3076 0.2138 1.9688 0.3125 0.4675 0.07 0.93805 0.1237 1.4062 0.1875 1.4117 0.1916 2.8215 0.3641 4.25 0.5 0.644 0.061 1.2903 0.1064 1.9375 0.1562 0.2085 0.016 0.4166 0.052 0.625 0.062 0.0831 0.01 0.1671-0.01 0.25 0 0.5926 0.041 1.1862 0.094 1.7812 0.125 0.1772 0.01 0.35405-0.01 0.53125 0 0.6337 0.03 1.2698 0.013 1.9062 0.031 1.0746 0.032 2.175 0.062 3.25 0.062s2.1442-0.034 3.2188-0.062c0.8141-0.024 1.6283-0.051 2.4375-0.094 0.5952-0.031 1.1888-0.084 1.7812-0.125 0.083-0.01 0.167 0.01 0.25 0 0.2089-0.015 0.4165-0.015 0.625-0.031 0.6452-0.05 1.2931-0.095 1.9375-0.1563 1.4064-0.1338 2.7975-0.2809 4.1875-0.4687 1.2641-0.1708 2.5316-0.3792 3.7812-0.5938 0.7426-0.1274 1.4814-0.2635 2.2188-0.4062 0.5573-0.1079 1.1004-0.1957 1.6562-0.3125 0.4522-0.095 0.89355-0.2118 1.3438-0.3125 1.5117-0.3382 3.0326-0.7206 4.5312-1.125 0.8276-0.2236 1.6492-0.4447 2.4688-0.6875 0.839-0.2486 1.6697-0.5128 2.5-0.7813 0.7873-0.2545 1.5648-0.509 2.3438-0.7812 0.0851-0.03 0.1657-0.095 0.25-0.125 0.4686-0.1646 0.93955-0.3286 1.4062-0.5 0.2934-0.108 0.5828-0.2333 0.875-0.3438 0.6634-0.2503 1.3406-0.4861 2-0.75 0.1476-0.059 0.2902-0.1276 0.4375-0.1875 0.1381-0.056 0.26845-0.1309 0.40625-0.1875 1.4711-0.6052 2.9378-1.2071 4.375-1.875 0.1258-0.058 0.2497-0.1287 0.375-0.1875 0.6675-0.3134 1.3404-0.642 2-0.9687 0.2503-0.1237 0.5006-0.2492 0.75-0.375 0.5336-0.2693 1.0654-0.5345 1.5938-0.8125 0.3676-0.1933 0.72795-0.3959 1.0938-0.5938 0.4057-0.2195 0.81625-0.4315 1.2188-0.6562 0.4821-0.2688 0.9587-0.5357 1.4375-0.8125 0.8743-0.5058 1.7354-1.0329 2.5938-1.5625 1.6803-1.0366 3.3356-2.1118 4.9688-3.25 0.024-0.016 0.0395-0.018 0.0625-0.031 0.7094-0.4949 1.4283-0.9884 2.125-1.5 0.1136-0.083 0.23045-0.166 0.34375-0.25 0.6065-0.4489 1.216-0.9136 1.8125-1.375 0.1984-0.1535 0.39625-0.3136 0.59375-0.4687 0.5154-0.4044 1.0236-0.8051 1.5312-1.2188 0.04-0.033 0.0851-0.061 0.125-0.094 0.6589-0.5383 1.2918-1.1027 1.9375-1.6563 0.6333-0.5431 1.2545-1.0987 1.875-1.6562 0.0609-0.054 0.1272-0.1018 0.1875-0.1563 0.4022-0.3633 0.7897-0.7232 1.1875-1.0937 0.2702-0.2514 0.5451-0.4959 0.8125-0.75 0.4544-0.4318 0.9267-0.8712 1.375-1.3125 0.209-0.2055 0.4179-0.4179 0.625-0.625 0.5108-0.5107 1.0019-1.0129 1.5-1.5313 0.1392-0.1447 0.26795-0.292 0.40625-0.4375 0.5464-0.5748 1.0938-1.1661 1.625-1.75 0.084-0.093 0.1659-0.1881 0.25-0.2812 0.5923-0.6556 1.1768-1.3023 1.75-1.9688 0.019-0.022 0.0435-0.012 0.0625-0.031 0.6353-0.7399 1.2632-1.4971 1.875-2.25 0.5256-0.6478 1.0518-1.3085 1.5625-1.9688 0.1046-0.135 0.2087-0.2708 0.3125-0.4062 32.17-41.953 29.054-102.26-9.3438-140.66-20.893-20.893-48.273-31.344-75.656-31.344zm0 6.4688c0.80457 0 1.6062 0.0125 2.4062 0.0312 0.0623 1e-3 0.12519-2e-3 0.1875 0 0.74101 0.019 1.4782 0.0584 2.2188 0.0937 1.6098 0.0761 3.2234 0.19274 4.8125 0.34375 0.21784 0.0209 0.43851 0.0402 0.65625 0.0625 3.0159 0.30628 5.9752 0.74551 8.9062 1.3125 3.2042 0.61982 6.3497 1.3961 9.4375 2.3125 0.77694 0.22999 1.5402 0.46959 2.3125 0.71875 0.77396 0.2503 1.5469 0.51281 2.3125 0.78125 1.5363 0.53867 3.0613 1.1086 4.5625 1.7188 0.7561 0.30665 1.5313 0.61169 2.2812 0.9375 0.10643 0.0463 0.20626 0.10955 0.3125 0.15625 1.3986 0.61475 2.7606 1.2617 4.125 1.9375 0.7423 0.36766 1.487 0.73968 2.2188 1.125 0.72165 0.37999 1.4451 0.75935 2.1562 1.1562 0.72347 0.40378 1.4439 0.829 2.1562 1.25 1.0409 0.61496 2.0708 1.2505 3.0938 1.9062 0.56833 0.36431 1.1562 0.71686 1.7188 1.0938 0.10533 0.0706 0.20738 0.14774 0.3125 0.21875 0.93499 0.63167 1.869 1.2756 2.7812 1.9375 0.39185 0.2845 0.76762 0.58415 1.1562 0.875 0.21884 0.16366 0.43879 0.3346 0.65625 0.5 0.2199 0.16743 0.43742 0.33052 0.65625 0.5 0.67567 0.52263 1.3382 1.0544 2 1.5938 0.65997 0.5378 1.3228 1.0709 1.9688 1.625 0.12328 0.10575 0.25224 0.20616 0.375 0.3125 1.2054 1.0452 2.3962 2.138 3.5625 3.25 0.58715 0.55979 1.1453 1.145 1.7188 1.7188 1.1443 1.1443 2.2662 2.2842 3.3438 3.4688 0.54071 0.59492 1.0672 1.1734 1.5938 1.7812 0.0337 0.0388 0.0601 0.0861 0.0937 0.125 0.49166 0.56935 0.98976 1.1384 1.4688 1.7188 1.0438 1.2626 2.0275 2.5746 3 3.875 0.0312 0.0418 0.0626 0.0832 0.0937 0.125 0.46345 0.6226 0.92574 1.2414 1.375 1.875 0.44457 0.62618 0.88399 1.2411 1.3125 1.875 2.2446 3.3224 4.2835 6.7858 6.125 10.375 0.6919 1.3498 1.342 2.6891 1.9688 4.0625 0.32573 0.71239 0.62805 1.435 0.9375 2.1562 0.24275 0.56664 0.4869 1.1174 0.71875 1.6875 0.09647 0.23668 0.18653 0.48117 0.28125 0.71875 0.52403 1.3177 1.034 2.6343 1.5 3.9688 0.03242 0.0926 0.0616 0.18855 0.09375 0.28125 0.12033 0.34783 0.22736 0.71363 0.34375 1.0625 0.2052 0.61361 0.40013 1.2249 0.59375 1.8438 0.34224 1.096 0.69619 2.1764 1 3.2812 0.03983 0.14456 0.05455 0.29269 0.09375 0.4375 0.38257 1.4135 0.74079 2.8438 1.0625 4.2812 0.33551 1.4991 0.63856 3.0077 0.90625 4.5312 0.33103 1.8808 0.62034 3.7626 0.84375 5.6562 0.13894 1.1845 0.24637 2.397 0.34375 3.5938 0.0991 1.2104 0.19461 2.4123 0.25 3.625 0.02137 0.47041 0.01637 0.93418 0.03125 1.4062 0.03815 1.2039 0.0674 2.4206 0.0625 3.625-0.0012 0.31326-0.02715 0.62493-0.03125 0.9375-0.0074 0.56439-0.01457 1.1254-0.03125 1.6875-0.04548 1.5331-0.10534 3.0474-0.21875 4.5625-0.06701 0.88665-0.15956 1.8025-0.25 2.6875-0.06462 0.63633-0.14231 1.2735-0.21875 1.9062-0.07688 0.63317-0.16108 1.2431-0.25 1.875-0.0262 0.18722-0.03527 0.37561-0.0625 0.5625-0.32469 2.2282-0.7191 4.4155-1.1875 6.5938-0.45594 2.1203-0.9751 4.213-1.5625 6.2812-0.02078 0.0733-0.04155 0.14549-0.0625 0.21875-0.11965 0.41767-0.2501 0.83457-0.375 1.25-0.11862 0.39537-0.25141 0.79333-0.375 1.1875-0.23101 0.73498-0.47141 1.4599-0.71875 2.1875-0.25095 0.74003-0.48132 1.4836-0.75 2.2188-0.47077 1.2857-0.97881 2.552-1.5 3.8125-0.19371 0.46848-0.3932 0.94137-0.59375 1.4062-0.36323 0.8433-0.7376 1.6961-1.125 2.5312-0.53917 1.1601-1.1059 2.3019-1.6875 3.4375-0.26541 0.51893-0.53748 1.0473-0.8125 1.5625-0.022 0.0411-0.0405 0.084-0.0625 0.125-0.23562 0.43991-0.47612 0.87539-0.71875 1.3125-0.17413 0.31334-0.35387 0.62623-0.53125 0.9375-0.32863 0.57722-0.65902 1.1467-1 1.7188-0.0928 0.15568-0.18761 0.31362-0.28125 0.46875-0.31406 0.5204-0.64442 1.0466-0.96875 1.5625-0.19836 0.31535-0.39199 0.62453-0.59375 0.9375-0.39139 0.60729-0.78171 1.2119-1.1875 1.8125-0.27576 0.40818-0.56218 0.81487-0.84375 1.2188-0.3523 0.5053-0.69984 0.9998-1.0625 1.5-0.6488 0.8954-1.3227 1.7835-2 2.6563-0.61345 0.7894-1.2348 1.5999-1.875 2.375-0.3052 0.3698-0.62714 0.7284-0.9375 1.0937-18.434 21.701-45.921 35.469-76.625 35.469-30.704 0-58.191-13.768-76.625-35.469-4e-3 0-0.0269 0.01-0.0312 0-0.18722-0.2202-0.37749-0.4348-0.5625-0.6562-0.33332-0.3994-0.64156-0.8142-0.96875-1.2188-0.29288-0.3617-0.5879-0.7289-0.875-1.0937-0.12784-0.1627-0.24815-0.3365-0.375-0.5-0.37153-0.4782-0.73206-0.9543-1.0938-1.4375-0.19616-0.2623-0.40011-0.517-0.59375-0.7813-0.21227-0.2895-0.41623-0.5837-0.625-0.87496-0.0995-0.13885-0.21371-0.26688-0.3125-0.40625-0.43565-0.61433-0.86105-1.2532-1.2812-1.875-1.3649-2.0196-2.6418-4.064-3.8438-6.1562-0.12524-0.2178-0.25136-0.43743-0.375-0.65625-0.27407-0.48563-0.54716-0.97959-0.8125-1.4688-0.38656-0.71262-0.75695-1.4364-1.125-2.1562-0.0909-0.17747-0.19138-0.35317-0.28125-0.53125-0.27781-0.55149-0.54551-1.1008-0.8125-1.6562-0.0713-0.14807-0.14811-0.28903-0.21875-0.4375-0.12804-0.26976-0.2495-0.54184-0.375-0.8125-0.20358-0.43801-0.39634-0.87109-0.59375-1.3125-0.27539-0.61709-0.55019-1.2536-0.8125-1.875-0.0396-0.0937-0.0856-0.18737-0.125-0.28125-0.25251-0.60329-0.5098-1.2054-0.75-1.8125-0.0291-0.0733-0.0648-0.14535-0.0937-0.21875-0.0654-0.16652-0.123-0.3332-0.1875-0.5-0.22972-0.59258-0.43751-1.1833-0.65625-1.7812-0.27974-0.76665-0.55205-1.5406-0.8125-2.3125-0.4796-1.4214-0.92956-2.8438-1.3438-4.2812-0.0329-0.11428-0.0612-0.22938-0.0937-0.34375-0.039-0.13682-0.0866-0.2692-0.125-0.40625-0.1654-0.5913-0.31438-1.1876-0.46875-1.7812-0.12923-0.49609-0.2532-1.001-0.375-1.5-0.0458-0.18794-0.11154-0.37435-0.15625-0.5625-0.16749-0.70395-0.31616-1.4154-0.46875-2.125-0.0696-0.32391-0.15236-0.6443-0.21875-0.96875-0.0616-0.30114-0.12858-0.60414-0.1875-0.90625-0.0711-0.36426-0.12051-0.72887-0.1875-1.0938-0.0458-0.24968-0.081-0.49968-0.125-0.75-0.0987-0.56179-0.19211-1.1244-0.28125-1.6875-0.0545-0.34477-0.10528-0.68532-0.15625-1.0312-0.0355-0.24007-0.06-0.47848-0.0937-0.71875-0.19249-1.3753-0.36377-2.7637-0.5-4.1562-0.0706-0.71981-0.16362-1.4666-0.21875-2.1875-3e-3 -0.0413 3e-3 -0.0836 0-0.125-0.0917-1.2245-0.14012-2.4511-0.1875-3.6875-0.0169-0.43927-0.0513-0.87308-0.0625-1.3125-0.0155-0.61278-0.0267-1.2283-0.0312-1.8438-2e-3 -0.24763-6e-5 -0.50237 0-0.75 2e-4 -0.86109 9e-3 -1.7329 0.0312-2.5938 0.0107-0.42031 0.0155-0.83099 0.0312-1.25 0.01-0.26112 0.0192-0.5202 0.0312-0.78125 0.0228-0.50225 0.0636-0.9997 0.0937-1.5 0.0324-0.53228 0.0529-1.062 0.0937-1.5938 0.0134-0.1767 0.0481-0.3548 0.0625-0.53125 0.0557-0.67801 0.11805-1.3543 0.1875-2.0312 0.0137-0.13505 0.017-0.27136 0.0312-0.40625 0.041-0.38452 0.0796-0.77214 0.125-1.1562 0.044-0.3754 0.10809-0.75088 0.15625-1.125 0.10102-0.77888 0.19323-1.567 0.3125-2.3438 0.11273-0.73779 0.24631-1.4551 0.375-2.1875 0.26769-1.5236 0.57074-3.0321 0.90625-4.5312 0.32171-1.4375 0.67992-2.8678 1.0625-4.2812 0.0387-0.1432 0.0544-0.29444 0.0937-0.4375 0.18254-0.66259 0.39805-1.3117 0.59375-1.9688 0.11543-0.38813 0.22353-0.76926 0.34375-1.1562 0.10808-0.3475 0.232-0.68537 0.34375-1.0312 0.13945-0.43218 0.26079-0.88187 0.40625-1.3125 0.0944-0.27904 0.18444-0.56582 0.28125-0.84375 0.0184-0.053 0.044-0.10326 0.0625-0.15625 0.24132-0.68913 0.49418-1.3803 0.75-2.0625 0.19344-0.51638 0.39151-1.0487 0.59375-1.5625 0.0459-0.11638 0.10993-0.22758 0.15625-0.34375 0.0952-0.23924 0.18413-0.4801 0.28125-0.71875 0.22975-0.56368 0.4791-1.129 0.71875-1.6875 0.30945-0.72121 0.61177-1.4439 0.9375-2.1562 0.27849-0.60991 0.55241-1.2071 0.84375-1.8125 0.0464-0.0962 0.10958-0.18518 0.15625-0.28125 0.30994-0.63874 0.61323-1.2728 0.9375-1.9062 0.0106-0.0208 0.0206-0.0418 0.0312-0.0625 0.0655-0.12777 0.15264-0.24745 0.21875-0.375 0.31989-0.61688 0.63652-1.2344 0.96875-1.8438 0.36396-0.66811 0.7135-1.3385 1.0938-2 0.0115-0.02 0.0197-0.0425 0.0312-0.0625 0.39241-0.6815 0.80904-1.3571 1.2188-2.0312 0.41214-0.6783 0.82237-1.3324 1.25-2 8e-3 -0.012 0.0235-0.0192 0.0312-0.0312 0.42321-0.66012 0.84314-1.3193 1.2812-1.9688 0.013-0.0193 0.0182-0.0432 0.0312-0.0625 0.42576-0.63021 0.87292-1.2551 1.3125-1.875 0.44925-0.63358 0.91155-1.2524 1.375-1.875 0.031-0.0416 0.0627-0.0834 0.0937-0.125 0.46464-0.62219 0.92765-1.264 1.4062-1.875 0.032-0.0408 0.0617-0.0843 0.0937-0.125 1.4779-1.8806 3.0193-3.6684 4.625-5.4375 0.0151-0.0166 0.0161-0.0459 0.0312-0.0625 0.5258-0.57852 1.086-1.1527 1.625-1.7188 0.0153-0.0161 0.0159-0.0464 0.0312-0.0625 0.54952-0.57637 1.1245-1.1243 1.6875-1.6875 0.57347-0.57373 1.1316-1.159 1.7188-1.7188 0.0266-0.0254 0.0671-0.0372 0.0937-0.0625 0.56713-0.54001 1.111-1.0695 1.6875-1.5938 0.0387-0.0352 0.0862-0.0586 0.125-0.0937 1.8419-1.6689 3.7252-3.251 5.6875-4.7812 0.53488-0.41781 1.0837-0.84451 1.625-1.25 0.11361-0.085 0.22976-0.1655 0.34375-0.25 1.18-0.87476 2.3748-1.739 3.5938-2.5625 0.0815-0.055 0.16836-0.10145 0.25-0.15625 1.1736-0.78868 2.3639-1.5473 3.5625-2.2812 0.11643-0.0712 0.227-0.14799 0.34375-0.21875 0.50942-0.30911 1.0176-0.60699 1.5312-0.90625 0.18897-0.11003 0.37274-0.23492 0.5625-0.34375 0.29846-0.17125 0.60641-0.33206 0.90625-0.5 0.49526-0.27732 0.9996-0.54337 1.5-0.8125 0.59977-0.3227 1.1764-0.62785 1.7812-0.9375 0.10318-0.0528 0.20911-0.10375 0.3125-0.15625 0.61987-0.31458 1.2501-0.63658 1.875-0.9375 0.0932-0.0449 0.18792-0.0804 0.28125-0.125 0.63705-0.30437 1.2642-0.61606 1.9062-0.90625 0.0808-0.0365 0.1691-0.0574 0.25-0.0937 0.66379-0.2979 1.3312-0.59223 2-0.875 0.0601-0.0254 0.12736-0.0372 0.1875-0.0625 0.69924-0.29403 1.3894-0.59749 2.0938-0.875 0.0307-0.0121 0.063-0.0192 0.0937-0.0312 0.72616-0.28526 1.4562-0.57604 2.1875-0.84375 0.66532-0.24361 1.3594-0.45764 2.0312-0.6875 0.0752-0.0257 0.1435-0.0682 0.21875-0.0937 0.74649-0.25343 1.4957-0.4825 2.25-0.71875 0.063-0.0197 0.12448-0.0429 0.1875-0.0625 0.58933-0.1833 1.1873-0.35856 1.7812-0.53125 0.0949-0.0276 0.18624-0.0664 0.28125-0.0937 0.76133-0.21892 1.5126-0.42371 2.2812-0.625 0.75323-0.19725 1.5212-0.3824 2.2812-0.5625 0.74843-0.17735 1.4952-0.37074 2.25-0.53125 0.51896-0.11036 1.0406-0.21018 1.5625-0.3125 0.48713-0.0958 0.98051-0.19268 1.4688-0.28125 0.13513-0.0244 0.27092-0.0386 0.40625-0.0625 0.68611-0.12158 1.3745-0.23651 2.0625-0.34375 0.14613-0.0226 0.29115-0.0405 0.4375-0.0625 0.58428-0.0884 1.1645-0.1719 1.75-0.25 0.4155-0.0549 0.8329-0.1064 1.25-0.15625 0.5017-0.0605 0.9976-0.1033 1.5-0.15625 0.0938-0.01 0.1874-0.0217 0.28125-0.0312 0.44826-0.046 0.89502-0.0851 1.3438-0.125 0.62038-0.0547 1.2514-0.11286 1.875-0.15625 0.63199-0.0444 1.2737-0.0925 1.9062-0.125 0.14641-7e-3 0.29092-0.0245 0.4375-0.0312 0.53604-0.0252 1.0574-0.0146 1.5938-0.0312 0.24084-7e-3 0.47748-0.0256 0.71875-0.0312 0.80005-0.0188 1.6017-0.0312 2.4062-0.0312z" fill="url(#b)"/>
</g>
</g>
</svg>
