<?xml version="1.0" encoding="UTF-8" standalone="no"?>
<svg
   xmlns:dc="http://purl.org/dc/elements/1.1/"
   xmlns:cc="http://creativecommons.org/ns#"
   xmlns:rdf="http://www.w3.org/1999/02/22-rdf-syntax-ns#"
   xmlns:svg="http://www.w3.org/2000/svg"
   xmlns="http://www.w3.org/2000/svg"
   xmlns:sodipodi="http://sodipodi.sourceforge.net/DTD/sodipodi-0.dtd"
   xmlns:inkscape="http://www.inkscape.org/namespaces/inkscape"
   version="1.1"
   viewBox="0 0 240 240"
   id="svg1313"
   sodipodi:docname="airspeed2.svg"
   inkscape:version="0.92.5 (2060ec1f9f, 2020-04-08)">
  <sodipodi:namedview
     pagecolor="#ffffff"
     bordercolor="#666666"
     borderopacity="1"
     objecttolerance="10"
     gridtolerance="10"
     guidetolerance="10"
     inkscape:pageopacity="0"
     inkscape:pageshadow="2"
     inkscape:window-width="1920"
     inkscape:window-height="1031"
     id="namedview1315"
     showgrid="false"
     inkscape:snap-nodes="false"
     inkscape:zoom="3.5333333"
     inkscape:cx="147.54957"
     inkscape:cy="121.97946"
     inkscape:window-x="0"
     inkscape:window-y="0"
     inkscape:window-maximized="1"
     inkscape:current-layer="svg1313" />
  <defs
     id="defs1123">
    <radialGradient
       id="a"
       cx="348.86"
       cy="103"
       r="42.813"
       gradientTransform="matrix(1.5277,1.5277,-1.5277,1.5277,-568.11,251.03)"
       gradientUnits="userSpaceOnUse">
      <stop
         stop-opacity="0"
         offset="0"
         id="stop1093" />
      <stop
         stop-opacity="0"
         offset=".1875"
         id="stop1095" />
      <stop
         stop-opacity="0"
         offset=".375"
         id="stop1097" />
      <stop
         stop-opacity="0"
         offset=".75"
         id="stop1099" />
      <stop
         stop-opacity="0"
         offset=".875"
         id="stop1101" />
      <stop
         stop-opacity=".19608"
         offset=".9375"
         id="stop1103" />
      <stop
         stop-opacity=".39216"
         offset="1"
         id="stop1105" />
    </radialGradient>
    <linearGradient
       id="c"
       x1="549.11"
       x2="678.93"
       y1="265.41"
       y2="265.41"
       gradientTransform="matrix(1.1983,1.1983,-1.2351,1.2351,-600.49,-122.25)"
       gradientUnits="userSpaceOnUse">
      <stop
         stop-color="#505050"
         offset="0"
         id="stop1108" />
      <stop
         stop-color="#282828"
         offset="1"
         id="stop1110" />
    </linearGradient>
    <linearGradient
       id="d"
       x1="549.11"
       x2="678.93"
       y1="265.41"
       y2="265.41"
       gradientTransform="matrix(1.1003,1.1003,-1.134,1.134,-567.1,-35.217)"
       gradientUnits="userSpaceOnUse">
      <stop
         stop-color="#111"
         offset="0"
         id="stop1113" />
      <stop
         stop-color="#646464"
         offset="1"
         id="stop1115" />
    </linearGradient>
    <linearGradient
       id="b"
       x1="549.11"
       x2="678.93"
       y1="265.41"
       y2="265.41"
       gradientTransform="matrix(1.1656,1.1656,-1.2014,1.2014,-589.34,-93.246)"
       gradientUnits="userSpaceOnUse">
      <stop
         stop-color="#0f0f0f"
         offset="0"
         id="stop1118" />
      <stop
         stop-color="#505050"
         offset="1"
         id="stop1120" />
    </linearGradient>
  </defs>
  <metadata
     id="metadata1125">
    <rdf:RDF>
      <cc:Work
         rdf:about="">
        <dc:format>image/svg+xml</dc:format>
        <dc:type
           rdf:resource="http://purl.org/dc/dcmitype/StillImage" />
        <dc:title></dc:title>
      </cc:Work>
    </rdf:RDF>
  </metadata>
  <rect
     style="opacity:1;fill:#000000;fill-opacity:1;stroke:none;stroke-width:3.85162544;stroke-linecap:round;stroke-linejoin:miter;stroke-miterlimit:4;stroke-dasharray:none;stroke-dashoffset:0;stroke-opacity:1"
     id="rect1514"
     width="237.78999"
     height="237.78999"
     x="1.1473432"
     y="0.56603408" />
  <g
     style="fill:#ffffff"
     id="g1145"
     transform="translate(-304.791,-858.899)">
    <path
       inkscape:connector-curvature="0"
       id="path1129"
       d="m 399.51,901.15 -1.6055,4.3535 h 3.2168 L 399.51,901.15 m -0.66797,-1.166 h 1.3418 l 3.334,8.748 h -1.2305 l -0.79687,-2.2441 h -3.9434 l -0.79687,2.2441 h -1.248 l 3.3398,-8.748" />
    <path
       inkscape:connector-curvature="0"
       id="path1131"
       d="m 404.79,899.98 h 1.1836 v 8.748 H 404.79 v -8.748" />
    <path
       inkscape:connector-curvature="0"
       id="path1133"
       d="m 412.48,904.63 c 0.2539,0.0859 0.49999,0.26953 0.73828,0.55078 0.24218,0.28125 0.48437,0.66797 0.72656,1.1602 l 1.2012,2.3906 h -1.2715 l -1.1191,-2.2441 c -0.28907,-0.58594 -0.57032,-0.97461 -0.84375,-1.166 -0.26954,-0.1914 -0.63868,-0.2871 -1.1074,-0.28711 h -1.2891 v 3.6973 h -1.1836 v -8.748 h 2.6719 c 0.99999,1e-5 1.7461,0.209 2.2383,0.62696 0.49218,0.41797 0.73827,1.0488 0.73828,1.8926 -1e-5,0.55079 -0.12891,1.0078 -0.38672,1.3711 -0.25391,0.36328 -0.62501,0.61524 -1.1133,0.75586 m -2.9648,-3.6738 v 3.1055 h 1.4883 c 0.5703,0 0.99999,-0.13086 1.2891,-0.39258 0.29296,-0.26562 0.43945,-0.65429 0.43945,-1.166 0,-0.51171 -0.14649,-0.89647 -0.43945,-1.1543 -0.28907,-0.26171 -0.71876,-0.39257 -1.2891,-0.39258 h -1.4883" />
    <path
       inkscape:connector-curvature="0"
       id="path1135"
       d="m 421.92,900.27 v 1.1543 c -0.44922,-0.21484 -0.87305,-0.37499 -1.2715,-0.48047 -0.39845,-0.10546 -0.78321,-0.15819 -1.1543,-0.1582 -0.64453,10e-6 -1.1426,0.12501 -1.4941,0.375 -0.34766,0.25 -0.52149,0.60547 -0.52149,1.0664 0,0.38673 0.11524,0.6797 0.34571,0.87891 0.23437,0.19532 0.67578,0.35352 1.3242,0.47461 l 0.71484,0.14648 c 0.88281,0.16798 1.5332,0.46485 1.9512,0.89063 0.42187,0.42188 0.63281,0.98828 0.63281,1.6992 0,0.84766 -0.28516,1.4902 -0.85546,1.9277 -0.56642,0.4375 -1.3984,0.65625 -2.4961,0.65625 -0.41406,0 -0.85547,-0.0469 -1.3242,-0.14062 -0.46484,-0.0937 -0.94726,-0.23242 -1.4473,-0.41602 v -1.2188 c 0.48047,0.26953 0.95117,0.47266 1.4121,0.60938 0.46093,0.13672 0.91406,0.20508 1.3594,0.20507 0.67578,10e-6 1.1973,-0.13281 1.5645,-0.39843 0.36718,-0.26563 0.55077,-0.64453 0.55078,-1.1367 -1e-5,-0.42969 -0.13282,-0.76562 -0.39844,-1.0078 -0.26172,-0.24219 -0.69336,-0.42383 -1.2949,-0.54493 l -0.72071,-0.14062 c -0.88281,-0.17578 -1.5215,-0.45117 -1.916,-0.82617 -0.3945,-0.375 -0.5918,-0.89648 -0.5918,-1.5645 0,-0.77343 0.27149,-1.3828 0.81445,-1.8281 0.54688,-0.4453 1.2988,-0.66796 2.2559,-0.66797 0.41016,10e-6 0.82812,0.0371 1.2539,0.11133 0.42578,0.0742 0.86132,0.18555 1.3066,0.33398" />
    <path
       inkscape:connector-curvature="0"
       id="path1137"
       d="m 425.47,900.96 v 3.2871 h 1.4883 c 0.55078,0 0.97656,-0.14257 1.2774,-0.42774 0.30077,-0.28515 0.45116,-0.6914 0.45117,-1.2188 -10e-6,-0.52343 -0.1504,-0.92772 -0.45117,-1.2129 -0.30079,-0.28514 -0.72657,-0.42772 -1.2774,-0.42773 H 425.47 m -1.1836,-0.97266 h 2.6719 c 0.98047,1e-5 1.7207,0.22267 2.2207,0.66797 0.5039,0.44142 0.75585,1.0898 0.75586,1.9453 -1e-5,0.86329 -0.25196,1.5156 -0.75586,1.957 -0.50001,0.44141 -1.2402,0.66211 -2.2207,0.66211 H 425.47 v 3.5156 h -1.1836 v -8.748" />
    <path
       inkscape:connector-curvature="0"
       id="path1139"
       d="m 431.53,899.98 h 5.5312 v 0.9961 h -4.3477 v 2.5898 h 4.166 v 0.99609 h -4.166 v 3.1699 h 4.4531 v 0.99609 h -5.6367 v -8.748" />
    <path
       inkscape:connector-curvature="0"
       id="path1141"
       d="m 439.13,899.98 h 5.5312 v 0.9961 h -4.3477 v 2.5898 h 4.166 v 0.99609 h -4.166 v 3.1699 h 4.4531 v 0.99609 h -5.6367 v -8.748" />
    <path
       inkscape:connector-curvature="0"
       id="path1143"
       d="m 447.9,900.96 v 6.8027 h 1.4297 c 1.207,0 2.0898,-0.27343 2.6484,-0.82031 0.5625,-0.54687 0.84375,-1.4102 0.84375,-2.5898 0,-1.1719 -0.28125,-2.0293 -0.84375,-2.5723 -0.5586,-0.54687 -1.4414,-0.8203 -2.6484,-0.82031 H 447.9 m -1.1836,-0.97266 h 2.4316 c 1.6953,1e-5 2.9394,0.35353 3.7324,1.0606 0.79296,0.70313 1.1894,1.8047 1.1894,3.3047 -10e-6,1.5078 -0.39844,2.6152 -1.1953,3.3223 -0.79688,0.70703 -2.0391,1.0606 -3.7266,1.0606 h -2.4316 v -8.748" />
  </g>
  <g
     style="fill:#ffffff"
     id="g1157"
     transform="translate(-294.29498,-96.283774)">
    <path
       inkscape:connector-curvature="0"
       id="path1147"
       d="m 394.87,120.77 h 1.1836 v 3.6973 l 3.9258,-3.6973 h 1.5234 l -4.3418,4.0781 4.6524,4.6699 h -1.5586 l -4.2012,-4.2129 v 4.2129 H 394.87 v -8.748" />
    <path
       inkscape:connector-curvature="0"
       id="path1149"
       d="m 402.75,120.77 h 1.5938 l 3.8789,7.3184 V 120.77 h 1.1484 v 8.748 h -1.5938 l -3.8789,-7.3184 v 7.3184 H 402.75 v -8.748" />
    <path
       inkscape:connector-curvature="0"
       id="path1151"
       d="m 415.28,121.57 c -0.85938,1e-5 -1.543,0.32032 -2.0508,0.96094 -0.50391,0.64063 -0.75586,1.5137 -0.75586,2.6191 0,1.1016 0.25195,1.9727 0.75586,2.6133 0.50781,0.64063 1.1914,0.96094 2.0508,0.96094 0.85937,0 1.5391,-0.32031 2.0391,-0.96094 0.5039,-0.64062 0.75586,-1.5117 0.75586,-2.6133 0,-1.1055 -0.25196,-1.9785 -0.75586,-2.6191 -0.5,-0.64062 -1.1797,-0.96093 -2.0391,-0.96094 m 0,-0.96094 c 1.2266,1e-5 2.207,0.41212 2.9414,1.2363 0.73436,0.82032 1.1016,1.9219 1.1016,3.3047 -10e-6,1.3789 -0.3672,2.4805 -1.1016,3.3047 -0.73438,0.82031 -1.7148,1.2305 -2.9414,1.2305 -1.2305,0 -2.2148,-0.41015 -2.9531,-1.2305 -0.73438,-0.82032 -1.1016,-1.9219 -1.1016,-3.3047 0,-1.3828 0.36719,-2.4844 1.1016,-3.3047 0.73828,-0.82421 1.7226,-1.2363 2.9531,-1.2363" />
    <path
       inkscape:connector-curvature="0"
       id="path1153"
       d="m 419.96,120.77 h 7.4004 v 0.99609 h -3.1055 v 7.752 h -1.1894 v -7.752 H 419.96 V 120.77" />
    <path
       inkscape:connector-curvature="0"
       id="path1155"
       d="m 433.75,121.05 v 1.1543 c -0.44922,-0.21483 -0.87305,-0.37499 -1.2715,-0.48047 -0.39845,-0.10546 -0.78321,-0.15819 -1.1543,-0.1582 -0.64453,1e-5 -1.1426,0.12501 -1.4941,0.375 -0.34766,0.25001 -0.52149,0.60548 -0.52149,1.0664 0,0.38672 0.11524,0.67969 0.34571,0.8789 0.23437,0.19532 0.67578,0.35352 1.3242,0.47461 l 0.71484,0.14649 c 0.88281,0.16797 1.5332,0.46484 1.9512,0.89062 0.42187,0.42188 0.63281,0.98829 0.63281,1.6992 0,0.84766 -0.28516,1.4902 -0.85546,1.9277 -0.56642,0.4375 -1.3984,0.65625 -2.4961,0.65625 -0.41406,0 -0.85547,-0.0469 -1.3242,-0.14062 -0.46484,-0.0937 -0.94726,-0.23242 -1.4473,-0.41602 v -1.2188 c 0.48047,0.26954 0.95117,0.47266 1.4121,0.60938 0.46093,0.13672 0.91406,0.20508 1.3594,0.20508 0.67578,0 1.1973,-0.13282 1.5645,-0.39844 0.36718,-0.26562 0.55077,-0.64453 0.55078,-1.1367 -10e-6,-0.42968 -0.13282,-0.76562 -0.39844,-1.0078 -0.26172,-0.24219 -0.69336,-0.42383 -1.2949,-0.54492 l -0.72071,-0.14063 c -0.88281,-0.17578 -1.5215,-0.45117 -1.916,-0.82617 -0.3945,-0.375 -0.5918,-0.89648 -0.5918,-1.5644 0,-0.77343 0.27148,-1.3828 0.81445,-1.8281 0.54688,-0.4453 1.2988,-0.66796 2.2559,-0.66797 0.41016,10e-6 0.82812,0.0371 1.2539,0.11133 0.42578,0.0742 0.86132,0.18556 1.3066,0.33398" />
  </g>
  <g
     transform="translate(-284.38,-812.36)"
     id="g1217">
    <path
       d="m 455.81,861.57 -5.875,8.0938 c 32.083,23.31 41.377,67.089 21.562,101.44 l 8.6562,5 c 22.392,-38.784 11.887,-88.208 -24.344,-114.53 z"
       id="path1211"
       inkscape:connector-curvature="0"
       style="fill:#ffffff" />
    <path
       d="m 459.19,877.57 -7.0938,7.0625 c 0.005,0.005 -0.005,0.0259 0,0.0312 26.344,26.362 26.355,69.082 0,95.438 -21.603,21.603 -55.011,25.994 -81.469,10.719 l -5,8.6562 c 30.378,17.538 68.759,12.491 93.562,-12.312 30.266,-30.266 30.266,-79.328 0,-109.59 z"
       id="path1213"
       inkscape:connector-curvature="0"
       style="fill:#00c300" />
    <path
       d="m 337.81,943.63 -9.8438,1.6562 c 3.852,22.774 17.653,42.639 37.656,54.188 l 5,-8.6562 c -17.422,-10.059 -29.458,-27.352 -32.812,-47.188 z"
       id="path1215"
       inkscape:connector-curvature="0"
       style="fill:#f0f000" />
  </g>
  <rect
     transform="rotate(-99.600033)"
     x="-139.33591"
     y="5.8023372"
     width="2.0000083"
     height="25.000103"
     id="rect1219"
     style="fill:#ff0000;stroke-width:1.00000417" />
  <g
     id="g1287"
     style="fill:#ffffff"
     transform="translate(390.23,-805.7194)">
    <rect
       transform="matrix(-0.34202,0.93969,-0.93969,-0.34202,0,0)"
       x="961.32001"
       y="-155.17999"
       width="2"
       height="25"
       id="rect1221" />
    <rect
       transform="matrix(-0.64279,0.76604,-0.76604,-0.64279,0,0)"
       x="881.84998"
       y="-480.53"
       width="2"
       height="25"
       id="rect1223" />
    <rect
       transform="matrix(-0.86603,0.5,-0.5,-0.86603,0,0)"
       x="695.89001"
       y="-759.08002"
       width="2"
       height="25"
       id="rect1225" />
    <rect
       transform="matrix(-0.98481,0.17365,-0.17365,-0.98481,0,0)"
       x="425.88"
       y="-957.22998"
       width="2"
       height="25"
       id="rect1227" />
    <rect
       transform="matrix(-0.98481,-0.17365,0.17365,-0.98481,0,0)"
       x="104.38"
       y="-1051.1"
       width="2"
       height="25"
       id="rect1229" />
    <rect
       transform="matrix(-0.86603,-0.5,0.5,-0.86603,0,0)"
       x="-229.83"
       y="-1029.3"
       width="2"
       height="25"
       id="rect1231" />
    <rect
       transform="matrix(-0.17365,0.98481,-0.98481,-0.17365,0,0)"
       x="958.08002"
       y="12.879"
       width="1"
       height="20"
       id="rect1233" />
    <rect
       transform="matrix(-0.5,0.86603,-0.86603,-0.5,0,0)"
       x="936.32001"
       y="-321.32999"
       width="1"
       height="20"
       id="rect1235" />
    <rect
       transform="matrix(-0.76604,0.64279,-0.64279,-0.76604,0,0)"
       x="801.54999"
       y="-627.94"
       width="1"
       height="20"
       id="rect1237" />
    <rect
       transform="matrix(-0.93969,0.34202,-0.34202,-0.93969,0,0)"
       x="570.04999"
       y="-869.96997"
       width="1"
       height="20"
       id="rect1239" />
    <rect
       transform="scale(-1)"
       x="269.73001"
       y="-1018.2"
       width="1"
       height="20"
       id="rect1241" />
    <rect
       transform="matrix(-0.93969,-0.34202,0.34202,-0.93969,0,0)"
       x="-63.178001"
       y="-1054.8"
       width="1"
       height="20"
       id="rect1243" />
    <rect
       transform="matrix(-0.66913,-0.74314,0.74314,-0.66913,0,0)"
       x="-508.12"
       y="-912.75"
       width="2"
       height="25"
       id="rect1245" />
    <rect
       transform="matrix(-0.40674,-0.91355,0.91355,-0.40674,0,0)"
       x="-736.77002"
       y="-715.90002"
       width="2"
       height="25"
       id="rect1247" />
    <rect
       transform="matrix(-0.10453,-0.99452,0.99452,-0.10453,0,0)"
       x="-893.40002"
       y="-458.01999"
       width="2"
       height="25"
       id="rect1249" />
    <rect
       transform="matrix(-0.77715,-0.62932,0.62932,-0.77715,0,0)"
       x="-373.06"
       y="-981.97998"
       width="1"
       height="20"
       id="rect1251" />
    <rect
       transform="rotate(-123.00006)"
       x="-629.70001"
       y="-823.32001"
       width="1"
       height="20"
       id="rect1253" />
    <rect
       transform="matrix(-0.25882,-0.96593,0.96593,-0.25882,0,0)"
       x="-824.73999"
       y="-593.12"
       width="1"
       height="20"
       id="rect1255" />
    <rect
       transform="matrix(0.10453,-0.99452,0.99452,0.10453,0,0)"
       x="-949.90002"
       y="-264.48999"
       width="2"
       height="25"
       id="rect1257" />
    <rect
       transform="matrix(0.30902,-0.95106,0.95106,0.30902,0,0)"
       x="-964.91998"
       y="-63.444"
       width="2"
       height="25"
       id="rect1259" />
    <rect
       transform="matrix(0.5,-0.86603,0.86603,0.5,0,0)"
       x="-937.82001"
       y="136.33"
       width="2"
       height="25"
       id="rect1261" />
    <rect
       transform="matrix(0.66913,-0.74314,0.74314,0.66913,0,0)"
       x="-869.77002"
       y="326.10999"
       width="2"
       height="25"
       id="rect1263" />
    <rect
       transform="rotate(-90)"
       x="-926.21997"
       y="-362.73001"
       width="1"
       height="20"
       id="rect1265" />
    <rect
       transform="matrix(0.20791,-0.97815,0.97815,0.20791,0,0)"
       x="-962.17999"
       y="-164.36"
       width="1"
       height="20"
       id="rect1267" />
    <rect
       transform="matrix(0.40674,-0.91355,0.91355,0.40674,0,0)"
       x="-956.09998"
       y="37.153999"
       width="1"
       height="20"
       id="rect1269" />
    <rect
       transform="matrix(0.58779,-0.80902,0.80902,0.58779,0,0)"
       x="-908.26001"
       y="233"
       width="1"
       height="20"
       id="rect1271" />
    <rect
       transform="matrix(0.80902,0.58779,-0.58779,0.80902,0,0)"
       x="324.5"
       y="815.26001"
       width="2"
       height="25"
       id="rect1273" />
    <rect
       transform="matrix(0.70711,0.70711,-0.70711,0.70711,0,0)"
       x="463"
       y="753.16998"
       width="1"
       height="20"
       id="rect1275" />
    <rect
       transform="matrix(0.45399,0.89101,-0.89101,0.45399,0,0)"
       x="701.64001"
       y="568.54999"
       width="1"
       height="20"
       id="rect1277" />
    <rect
       transform="matrix(0.15643,0.98769,-0.98769,0.15643,0,0)"
       x="871.54999"
       y="319.22"
       width="1"
       height="20"
       id="rect1279" />
    <rect
       transform="matrix(0.58779,0.80902,-0.80902,0.58779,0,0)"
       x="589.08002"
       y="670.25"
       width="2"
       height="25"
       id="rect1281" />
    <rect
       transform="matrix(0.30902,0.95106,-0.95106,0.30902,0,0)"
       x="795.90997"
       y="450.57001"
       width="2"
       height="25"
       id="rect1283" />
    <rect
       transform="rotate(90)"
       x="924.71997"
       y="177.73"
       width="2"
       height="25"
       id="rect1285" />
  </g>
  <path
     style="fill:#323232;stroke-width:0.55961365"
     inkscape:connector-curvature="0"
     id="path1297"
     d="m 119.99683,120.62094 c -0.33866,0 -0.61322,-0.27455 -0.61322,-0.61323 0,-0.33867 0.27455,-0.61324 0.61322,-0.61324 0.33867,0 0.61322,0.27455 0.61322,0.61324 0,0.33866 -0.27454,0.61323 -0.61322,0.61323 z" />
  <path
     style="fill:#ffffff;stroke-width:0.71541506"
     inkscape:connector-curvature="0"
     id="path1161"
     d="m 179.2412,35.327209 -2.06383,3.056611 h 2.06383 v -3.056611 m -0.31299,-1.550305 h 2.09316 v 4.606916 h 1.04164 v 1.364439 h -1.04164 v 1.330243 h -1.78017 v -1.330243 h -3.23754 v -1.613905 l 2.92455,-4.35745" />
  <path
     style="fill:#ffffff;stroke-width:0.71541506"
     inkscape:connector-curvature="0"
     id="path1163"
     d="m 187.12507,37.416221 c 0,-0.91287 -0.0864,-1.555169 -0.2592,-1.926899 -0.16954,-0.374935 -0.45645,-0.562409 -0.86071,-0.562417 -0.40429,8e-6 -0.69283,0.187482 -0.86566,0.562417 -0.1728,0.371687 -0.2592,1.013958 -0.2592,1.926899 0,0.922671 0.0864,1.573126 0.2592,1.951294 0.1728,0.378197 0.46134,0.567303 0.86566,0.567296 0.40101,7e-6 0.68792,-0.189099 0.86071,-0.567296 0.1728,-0.378204 0.2592,-1.028623 0.2592,-1.951294 m 1.88283,0.01467 c 0,1.209624 -0.26084,2.143669 -0.78252,2.802281 -0.52166,0.655327 -1.26178,0.98298 -2.22029,0.98298 -0.9618,0 -1.70355,-0.327667 -2.22523,-0.98298 -0.52166,-0.65859 -0.78252,-1.592657 -0.78252,-2.802281 0,-1.212843 0.26083,-2.146961 0.78252,-2.802281 0.52166,-0.658582 1.26343,-0.987845 2.22523,-0.987917 0.95851,8e-6 1.69861,0.329306 2.22029,0.987917 0.52165,0.655342 0.78245,1.589438 0.78252,2.802281" />
  <path
     style="fill:#ffffff;stroke-width:0.71541506"
     inkscape:connector-curvature="0"
     id="path1165"
     d="m 214.30543,88.76646 c -0.3293,0 -0.57708,0.107591 -0.74339,0.322774 -0.16302,0.21193 -0.24453,0.53144 -0.24453,0.95851 0,0.42711 0.0815,0.74826 0.24453,0.96345 0.16628,0.21193 0.41406,0.31789 0.74339,0.31789 0.33255,0 0.58034,-0.10596 0.74339,-0.31789 0.16628,-0.21518 0.24941,-0.53632 0.24942,-0.96345 -1e-5,-0.4271 -0.0831,-0.7466 -0.24942,-0.95851 -0.16302,-0.215183 -0.41081,-0.322774 -0.74339,-0.322774 m 2.32789,-3.506536 v 1.349774 c -0.30974,-0.14671 -0.60154,-0.254301 -0.87538,-0.322774 -0.27388,-0.07173 -0.54123,-0.107591 -0.80205,-0.107598 -0.56079,7e-6 -0.99765,0.156504 -1.31064,0.469491 -0.313,0.309739 -0.49558,0.771074 -0.54774,1.384042 0.21517,-0.159752 0.44829,-0.278754 0.69934,-0.357007 0.25105,-0.0815 0.52491,-0.122257 0.82158,-0.122264 0.74661,7e-6 1.34813,0.218452 1.80464,0.655335 0.4597,0.436889 0.68956,1.009091 0.68956,1.716571 0,0.78252 -0.25594,1.41008 -0.76778,1.88282 -0.51188,0.4695 -1.19818,0.70424 -2.05889,0.70424 -0.94879,0 -1.68395,-0.31951 -2.20563,-0.95852 -0.51839,-0.64228 -0.77758,-1.55195 -0.77758,-2.728874 0,-1.206333 0.30321,-2.153471 0.90965,-2.841414 0.60968,-0.691192 1.44435,-1.03678 2.50395,-1.03678 0.33582,7e-6 0.66185,0.02611 0.97812,0.07824 0.31625,0.05215 0.62924,0.130427 0.93898,0.234749" />
  <path
     style="fill:#ffffff;stroke-width:0.71541506"
     inkscape:connector-curvature="0"
     id="path1167"
     d="m 222.25369,88.709227 c -1e-5,-0.91287 -0.0864,-1.55517 -0.25919,-1.926899 -0.16955,-0.374935 -0.45646,-0.562402 -0.86072,-0.56241 -0.40429,8e-6 -0.69283,0.187475 -0.86565,0.56241 -0.1728,0.371686 -0.2592,1.013957 -0.2592,1.926899 0,0.922667 0.0864,1.573127 0.2592,1.951297 0.17279,0.3782 0.46133,0.5673 0.86565,0.5673 0.40102,0 0.68793,-0.1891 0.86072,-0.5673 0.17279,-0.3782 0.25918,-1.02863 0.25919,-1.951297 m 1.88283,0.01467 c -1e-5,1.209617 -0.26084,2.143667 -0.78252,2.802277 -0.52167,0.65533 -1.26178,0.98298 -2.22029,0.98298 -0.9618,0 -1.70355,-0.32766 -2.22523,-0.98298 -0.52166,-0.65859 -0.78252,-1.59266 -0.78252,-2.802277 0,-1.212844 0.26083,-2.146961 0.78252,-2.802281 0.52165,-0.65859 1.26343,-0.987845 2.22523,-0.987917 0.95851,7e-6 1.69861,0.329299 2.22029,0.987917 0.52165,0.655334 0.78245,1.589437 0.78252,2.802281" />
  <path
     style="fill:#ffffff;stroke-width:0.71541506"
     inkscape:connector-curvature="0"
     id="path1169"
     d="m 213.62579,153.00705 c -0.35212,1e-5 -0.62273,0.0962 -0.81186,0.28854 -0.1891,0.19237 -0.28365,0.46787 -0.28365,0.82652 0,0.35865 0.0945,0.63414 0.28365,0.82652 0.1891,0.1891 0.45971,0.28365 0.81186,0.28365 0.34885,0 0.6162,-0.0945 0.80205,-0.28365 0.18583,-0.19236 0.27875,-0.46786 0.27876,-0.82652 -1e-5,-0.3619 -0.0929,-0.6374 -0.27876,-0.82652 -0.18585,-0.19235 -0.4532,-0.28853 -0.80205,-0.28854 m -1.37424,-0.62109 c -0.44342,-0.13368 -0.77759,-0.33907 -1.00259,-0.61621 -0.22497,-0.27712 -0.33744,-0.62273 -0.33744,-1.03678 0,-0.6162 0.22985,-1.08571 0.68956,-1.40851 0.45971,-0.32277 1.13458,-0.48416 2.0247,-0.48416 0.88354,0 1.55517,0.16139 2.01489,0.48416 0.45971,0.31952 0.68956,0.78903 0.68957,1.40851 -1e-5,0.41407 -0.11412,0.7597 -0.34234,1.03678 -0.22497,0.27714 -0.55915,0.48253 -1.00258,0.61621 0.49557,0.13694 0.86887,0.36027 1.11991,0.67 0.2543,0.30647 0.38146,0.69446 0.38147,1.16398 -1e-5,0.72378 -0.24128,1.27158 -0.72379,1.64324 -0.47928,0.36841 -1.19167,0.55262 -2.13716,0.55262 -0.94878,0 -1.66606,-0.18421 -2.15182,-0.55262 -0.48254,-0.37168 -0.72379,-0.91946 -0.72379,-1.64324 0,-0.46949 0.12553,-0.8575 0.37657,-1.16398 0.25431,-0.30973 0.62925,-0.53306 1.12485,-0.67 m 0.44014,-1.46231 c 0,0.29018 0.0799,0.51351 0.23964,0.67001 0.16301,0.15649 0.3945,0.23475 0.69445,0.23474 0.29344,1e-5 0.52003,-0.0782 0.67979,-0.23474 0.15975,-0.1565 0.23963,-0.37983 0.23964,-0.67001 -1e-5,-0.29017 -0.0799,-0.51187 -0.23964,-0.66512 -0.15976,-0.15648 -0.38635,-0.23473 -0.67979,-0.23474 -0.29995,1e-5 -0.53144,0.0783 -0.69445,0.23474 -0.15976,0.15651 -0.23964,0.37822 -0.23964,0.66512" />
  <path
     style="fill:#ffffff;stroke-width:0.71541506"
     inkscape:connector-curvature="0"
     id="path1171"
     d="m 221.70998,152.61357 c -1e-5,-0.91287 -0.0864,-1.55517 -0.25921,-1.92689 -0.16953,-0.37494 -0.45644,-0.56241 -0.86071,-0.56242 -0.40429,1e-5 -0.69283,0.18748 -0.86565,0.56242 -0.1728,0.37168 -0.25921,1.01395 -0.25921,1.92689 0,0.92267 0.0864,1.57313 0.25921,1.9513 0.17279,0.3782 0.46133,0.5673 0.86565,0.56729 0.40102,1e-5 0.68793,-0.18909 0.86071,-0.56729 0.1728,-0.37821 0.2592,-1.02863 0.25921,-1.9513 m 1.88283,0.0147 c 0,1.20962 -0.26084,2.14367 -0.78253,2.80228 -0.52165,0.65533 -1.26177,0.98298 -2.22029,0.98298 -0.9618,0 -1.70354,-0.32767 -2.22522,-0.98298 -0.52166,-0.65859 -0.78252,-1.59266 -0.78252,-2.80228 0,-1.21284 0.26082,-2.14696 0.78252,-2.80228 0.52165,-0.65858 1.26335,-0.98785 2.22522,-0.98792 0.95852,1e-5 1.69861,0.32931 2.22029,0.98792 0.52166,0.65534 0.78253,1.58944 0.78253,2.80228" />
  <path
     style="fill:#ffffff;stroke-width:0.71541506"
     inkscape:connector-curvature="0"
     id="path1173"
     d="m 161.9373,209.95213 h 1.66277 v -4.71938 l -1.70684,0.35212 v -1.28131 l 1.69704,-0.35211 h 1.78997 v 6.00069 h 1.66276 v 1.30091 h -5.1057 v -1.30091" />
  <path
     style="fill:#ffffff;stroke-width:0.71541506"
     inkscape:connector-curvature="0"
     id="path1175"
     d="m 172.33228,207.59126 c -1e-5,-0.91287 -0.0864,-1.55517 -0.25919,-1.9269 -0.16955,-0.37493 -0.45646,-0.5624 -0.86072,-0.56241 -0.40429,1e-5 -0.69283,0.18748 -0.86565,0.56241 -0.1728,0.37169 -0.2592,1.01396 -0.2592,1.9269 0,0.92267 0.0864,1.57313 0.2592,1.95129 0.17279,0.37821 0.46133,0.56731 0.86565,0.56731 0.40102,0 0.68793,-0.1891 0.86072,-0.56731 0.17279,-0.37819 0.25918,-1.02862 0.25919,-1.95129 m 1.88283,0.0147 c -1e-5,1.20962 -0.26083,2.14367 -0.78252,2.80228 -0.52167,0.65532 -1.26178,0.98298 -2.22029,0.98298 -0.9618,0 -1.70355,-0.32767 -2.22523,-0.98298 -0.52166,-0.65859 -0.78252,-1.59266 -0.78252,-2.80228 0,-1.21285 0.26083,-2.14696 0.78252,-2.80229 0.52165,-0.65858 1.26343,-0.98784 2.22523,-0.98784 0.95851,1e-5 1.69861,0.3293 2.22029,0.98784 0.52165,0.65535 0.78245,1.58944 0.78252,2.80229" />
  <path
     style="fill:#ffffff;stroke-width:0.71541506"
     inkscape:connector-curvature="0"
     id="path1177"
     d="m 179.30042,207.59126 c 0,-0.91287 -0.0864,-1.55517 -0.2592,-1.9269 -0.16954,-0.37493 -0.45645,-0.5624 -0.86071,-0.56241 -0.40429,1e-5 -0.69283,0.18748 -0.86566,0.56241 -0.1728,0.37169 -0.2592,1.01396 -0.2592,1.9269 0,0.92267 0.0864,1.57313 0.2592,1.95129 0.1728,0.37821 0.46134,0.56731 0.86566,0.56731 0.40102,0 0.68793,-0.1891 0.86071,-0.56731 0.1728,-0.37819 0.2592,-1.02862 0.2592,-1.95129 m 1.88283,0.0147 c 0,1.20962 -0.26083,2.14367 -0.78252,2.80228 -0.52166,0.65532 -1.26177,0.98298 -2.22029,0.98298 -0.9618,0 -1.70354,-0.32767 -2.22523,-0.98298 -0.52165,-0.65859 -0.78252,-1.59266 -0.78252,-2.80228 0,-1.21285 0.26084,-2.14696 0.78252,-2.80229 0.52166,-0.65858 1.26343,-0.98784 2.22523,-0.98784 0.95852,1e-5 1.69861,0.3293 2.22029,0.98784 0.52165,0.65535 0.78245,1.58944 0.78252,2.80229" />
  <path
     style="fill:#ffffff;stroke-width:0.71541506"
     inkscape:connector-curvature="0"
     id="path1179"
     d="m 94.103608,220.3783 h 1.662768 v -4.71938 l -1.706766,0.35212 v -1.28131 l 1.697037,-0.35212 h 1.789968 v 6.00069 h 1.662768 v 1.30091 H 94.10368 v -1.30091" />
  <path
     style="fill:#ffffff;stroke-width:0.71541506"
     inkscape:connector-curvature="0"
     id="path1181"
     d="m 102.78159,220.29245 h 3.21307 v 1.38405 h -5.30623 v -1.38405 l 2.66535,-2.35235 c 0.238,-0.21519 0.41406,-0.42547 0.52818,-0.63088 0.11411,-0.2054 0.17116,-0.41895 0.17117,-0.64066 -10e-6,-0.34233 -0.11575,-0.61783 -0.34723,-0.82652 -0.22823,-0.20866 -0.53307,-0.31298 -0.91451,-0.31299 -0.29344,10e-6 -0.61459,0.0636 -0.96345,0.19073 -0.34886,0.1239 -0.72214,0.30974 -1.11992,0.55752 v -1.6041 c 0.42385,-0.14019 0.84284,-0.24615 1.25685,-0.31788 0.41406,-0.075 0.82,-0.11248 1.21778,-0.11249 0.8738,1e-5 1.55195,0.19237 2.03449,0.57708 0.48579,0.38473 0.72872,0.92103 0.72872,1.60897 0,0.39777 -0.10271,0.76943 -0.3081,1.11505 -0.20541,0.34234 -0.6374,0.80205 -1.29598,1.3791 l -1.5601,1.36938" />
  <path
     style="fill:#ffffff;stroke-width:0.71541506"
     inkscape:connector-curvature="0"
     id="path1183"
     d="m 111.46673,218.02459 c -1e-5,-0.91287 -0.0864,-1.55517 -0.25919,-1.9269 -0.16955,-0.37494 -0.45646,-0.5624 -0.86072,-0.56241 -0.40429,1e-5 -0.69283,0.18747 -0.86565,0.56241 -0.1728,0.37169 -0.25921,1.01396 -0.25921,1.9269 0,0.92267 0.0864,1.57312 0.25921,1.95129 0.17279,0.37821 0.46133,0.5673 0.86565,0.5673 0.40102,0 0.68793,-0.18909 0.86072,-0.5673 0.17279,-0.37819 0.25918,-1.02862 0.25919,-1.95129 m 1.88283,0.0147 c -1e-5,1.20963 -0.26084,2.14367 -0.78252,2.80228 -0.52167,0.65534 -1.26178,0.98298 -2.22029,0.98298 -0.96181,0 -1.70355,-0.32766 -2.22523,-0.98298 -0.52166,-0.65859 -0.78252,-1.59265 -0.78252,-2.80228 0,-1.21284 0.26083,-2.14696 0.78252,-2.80228 0.52165,-0.65858 1.26342,-0.98784 2.22523,-0.98791 0.95851,0 1.69861,0.3293 2.22029,0.98791 0.52164,0.65534 0.78245,1.58944 0.78252,2.80228" />
  <path
     style="fill:#ffffff;stroke-width:0.71541506"
     inkscape:connector-curvature="0"
     id="path1185"
     d="m 34.722698,191.32614 h 1.662768 v -4.71937 l -1.706766,0.35212 v -1.28131 l 1.697036,-0.35212 h 1.789968 v 6.00068 h 1.662768 v 1.30092 h -5.105703 v -1.30092" />
  <path
     style="fill:#ffffff;stroke-width:0.71541506"
     inkscape:connector-curvature="0"
     id="path1187"
     d="m 44.201947,186.87626 -2.063829,3.05661 h 2.063829 v -3.05661 m -0.312994,-1.5503 h 2.093162 v 4.60691 h 1.041644 v 1.36444 h -1.041644 v 1.33025 h -1.780168 v -1.33025 h -3.237539 v -1.6139 l 2.924545,-4.35745" />
  <path
     style="fill:#ffffff;stroke-width:0.71541506"
     inkscape:connector-curvature="0"
     id="path1189"
     d="m 52.085821,188.97243 c -7e-6,-0.91287 -0.08641,-1.55517 -0.259202,-1.9269 -0.169539,-0.37493 -0.456449,-0.56241 -0.860716,-0.56242 -0.404288,1e-5 -0.692829,0.18749 -0.865652,0.56242 -0.172801,0.37169 -0.259202,1.01396 -0.259202,1.9269 0,0.92267 0.0864,1.57313 0.259202,1.95129 0.172794,0.3782 0.461336,0.56731 0.865652,0.5673 0.401019,1e-5 0.687929,-0.1891 0.860716,-0.5673 0.172794,-0.3782 0.259195,-1.02862 0.259202,-1.95129 m 1.88283,0.0147 c 0,1.20962 -0.260834,2.14366 -0.782521,2.80228 -0.52166,0.65532 -1.261778,0.98298 -2.220291,0.98298 -0.961804,0 -1.703546,-0.32767 -2.225227,-0.98298 -0.521659,-0.65859 -0.782521,-1.59266 -0.782521,-2.80228 0,-1.21285 0.260826,-2.14697 0.782521,-2.80229 0.521652,-0.65858 1.263351,-0.98784 2.225227,-0.98791 0.958513,0 1.69861,0.3293 2.220291,0.98791 0.521652,0.65535 0.782521,1.58944 0.782521,2.80229" />
  <path
     style="fill:#ffffff;stroke-width:0.71541506"
     inkscape:connector-curvature="0"
     id="path1191"
     d="m 6.1048833,132.14368 h 1.6627669 v -4.71938 l -1.7067649,0.35211 v -1.28131 l 1.6970359,-0.35212 h 1.789968 v 6.00069 h 1.6627678 v 1.30091 H 6.1049543 v -1.30091" />
  <path
     style="fill:#ffffff;stroke-width:0.71541506"
     inkscape:connector-curvature="0"
     id="path1193"
     d="m 15.519745,129.84004 c -0.329299,1e-5 -0.577083,0.1076 -0.743388,0.32277 -0.163022,0.21193 -0.244529,0.53144 -0.244529,0.95852 0,0.4271 0.08151,0.74825 0.244529,0.96345 0.166277,0.21192 0.414061,0.31788 0.743388,0.31788 0.332553,0 0.580345,-0.10596 0.743388,-0.31788 0.166269,-0.21519 0.249408,-0.53634 0.249415,-0.96345 -7e-6,-0.42711 -0.08315,-0.74661 -0.249415,-0.95852 -0.163022,-0.21517 -0.410813,-0.32276 -0.743388,-0.32277 m 2.327889,-3.50654 v 1.34978 c -0.309739,-0.14671 -0.601543,-0.2543 -0.875382,-0.32278 -0.273875,-0.0717 -0.541226,-0.10758 -0.802052,-0.10759 -0.560785,1e-5 -0.997646,0.15651 -1.31064,0.46949 -0.312994,0.30974 -0.495575,0.77108 -0.547736,1.38404 0.215182,-0.15975 0.448293,-0.27875 0.699347,-0.357 0.251039,-0.0815 0.524914,-0.12227 0.821582,-0.12227 0.746607,0 1.348128,0.21845 1.804635,0.65533 0.459697,0.4369 0.689553,1.00909 0.68956,1.71657 -7e-6,0.78252 -0.25594,1.41008 -0.767784,1.88283 -0.511879,0.46949 -1.198177,0.70424 -2.058893,0.70424 -0.948783,0 -1.683944,-0.31952 -2.205624,-0.95852 -0.518397,-0.64228 -0.777585,-1.55195 -0.777585,-2.72887 0,-1.20634 0.303214,-2.15348 0.90965,-2.84142 0.609684,-0.69118 1.444352,-1.03678 2.503953,-1.03678 0.335816,1e-5 0.661852,0.0261 0.978115,0.0782 0.31625,0.0522 0.629244,0.13042 0.938983,0.23475" />
  <path
     style="fill:#ffffff;stroke-width:0.71541506"
     inkscape:connector-curvature="0"
     id="path1195"
     d="m 23.468006,129.78996 c 0,-0.91287 -0.0864,-1.55517 -0.259195,-1.9269 -0.169546,-0.37493 -0.456456,-0.56241 -0.860716,-0.56242 -0.404288,1e-5 -0.692829,0.18749 -0.865652,0.56242 -0.172801,0.37168 -0.259202,1.01396 -0.259195,1.9269 -7e-6,0.92267 0.08639,1.57313 0.259195,1.95129 0.172794,0.37821 0.461336,0.56731 0.865652,0.56731 0.401019,0 0.687936,-0.1891 0.860716,-0.56731 0.172794,-0.37819 0.259195,-1.02862 0.259195,-1.95129 m 1.882829,0.0147 c -7e-6,1.20962 -0.260833,2.14367 -0.782521,2.80228 -0.521666,0.65532 -1.261777,0.98298 -2.22029,0.98298 -0.961804,0 -1.703546,-0.32767 -2.225227,-0.98298 -0.521659,-0.6586 -0.782521,-1.59266 -0.782521,-2.80228 0,-1.21285 0.260826,-2.14696 0.782521,-2.80229 0.521659,-0.65858 1.263423,-0.98784 2.225227,-0.98791 0.958513,1e-5 1.69861,0.3293 2.22029,0.98791 0.521653,0.65534 0.78245,1.58944 0.782521,2.80229" />
  <path
     style="fill:#ffffff;stroke-width:0.71541506"
     inkscape:connector-curvature="0"
     id="path1197"
     d="m 10.274369,91.309335 h 1.662768 v -4.719383 l -1.706838,0.352113 v -1.281309 l 1.697036,-0.35212 h 1.789969 v 6.000689 h 1.662768 v 1.30091 h -5.105703 v -1.30091" />
  <path
     style="fill:#ffffff;stroke-width:0.71541506"
     inkscape:connector-curvature="0"
     id="path1199"
     d="m 19.553302,89.341935 c -0.35212,0 -0.622733,0.0962 -0.811853,0.28855 -0.18912,0.19236 -0.283648,0.46786 -0.283648,0.82651 0,0.35865 0.09455,0.63415 0.283648,0.82652 0.189099,0.1891 0.459712,0.28365 0.811853,0.28365 0.348858,0 0.616202,-0.0945 0.802052,-0.28365 0.185836,-0.19236 0.278762,-0.46786 0.278762,-0.82652 0,-0.36189 -0.09293,-0.63739 -0.278762,-0.82651 -0.185843,-0.19237 -0.453187,-0.28855 -0.802052,-0.28855 m -1.374241,-0.62109 c -0.443407,-0.133676 -0.777584,-0.339079 -1.002582,-0.616209 -0.224962,-0.277131 -0.337447,-0.622726 -0.33744,-1.03678 -7e-6,-0.616201 0.229849,-1.085714 0.68956,-1.408509 0.459711,-0.322767 1.134577,-0.484157 2.024696,-0.484164 0.883538,7e-6 1.555169,0.161397 2.014895,0.484164 0.459704,0.319519 0.68956,0.789031 0.68956,1.408509 0,0.414068 -0.114116,0.759628 -0.342333,1.03678 -0.22497,0.27713 -0.559154,0.482533 -1.002583,0.616209 0.495568,0.13694 0.868872,0.36027 1.119911,0.67 0.254301,0.30648 0.381459,0.69446 0.381459,1.16398 0,0.72379 -0.241266,1.27158 -0.723785,1.64324 -0.479278,0.36841 -1.191667,0.55263 -2.13716,0.55263 -0.948783,0 -1.666058,-0.18422 -2.151825,-0.55263 -0.482533,-0.37168 -0.723786,-0.91945 -0.723786,-1.64324 0,-0.46948 0.12552,-0.8575 0.376574,-1.16398 0.254301,-0.30973 0.629243,-0.53306 1.124847,-0.67 m 0.440152,-1.462309 c -8e-6,0.290179 0.07988,0.51351 0.239635,0.67 0.163014,0.156504 0.394501,0.234757 0.694453,0.234749 0.293428,8e-6 0.520021,-0.07824 0.679788,-0.234749 0.159752,-0.15649 0.239628,-0.379821 0.239635,-0.67 -7e-6,-0.290165 -0.07988,-0.511873 -0.239635,-0.665114 -0.159767,-0.15649 -0.38636,-0.234735 -0.679788,-0.234742 -0.299952,7e-6 -0.531439,0.07825 -0.694453,0.234742 -0.159759,0.156504 -0.239643,0.378211 -0.239635,0.665114" />
  <path
     style="fill:#ffffff;stroke-width:0.71541506"
     inkscape:connector-curvature="0"
     id="path1201"
     d="m 27.637492,88.955615 c -7e-6,-0.91287 -0.08641,-1.55517 -0.259202,-1.926899 -0.169539,-0.374935 -0.456456,-0.562409 -0.860716,-0.562417 -0.404288,8e-6 -0.692829,0.187482 -0.865652,0.562417 -0.172801,0.371679 -0.259195,1.013958 -0.259195,1.926899 0,0.92267 0.08639,1.57313 0.259195,1.95129 0.172802,0.37821 0.461343,0.56731 0.865652,0.56731 0.401019,0 0.687929,-0.1891 0.860716,-0.56731 0.172795,-0.37819 0.259195,-1.02862 0.259202,-1.95129 m 1.88283,0.0147 c -7e-6,1.20962 -0.260833,2.14367 -0.782521,2.80228 -0.521659,0.65532 -1.261778,0.98298 -2.220291,0.98298 -0.961804,0 -1.703546,-0.32767 -2.225227,-0.98298 -0.521652,-0.6586 -0.782521,-1.59266 -0.782521,-2.80228 0,-1.212847 0.260833,-2.146965 0.782521,-2.802285 0.521659,-0.658583 1.263423,-0.987845 2.225227,-0.987917 0.958513,7e-6 1.69861,0.329306 2.220291,0.987917 0.521652,0.655334 0.782449,1.589438 0.782521,2.802285" />
  <path
     style="fill:#ffffff;stroke-width:0.71541506"
     inkscape:connector-curvature="0"
     id="path1203"
     d="m 31.63238,54.779069 h 3.213072 v 1.384042 h -5.306233 v -1.384042 l 2.66535,-2.352356 c 0.237997,-0.215183 0.414061,-0.425479 0.528177,-0.630882 0.114108,-0.205396 0.171163,-0.418954 0.17117,-0.640661 -7e-6,-0.342334 -0.115747,-0.617833 -0.347234,-0.826519 -0.228225,-0.208658 -0.53307,-0.312987 -0.914515,-0.312994 -0.293435,7e-6 -0.614577,0.0636 -0.963449,0.190729 -0.348858,0.123896 -0.72214,0.309739 -1.119911,0.557523 v -1.604103 c 0.42384,-0.140186 0.842759,-0.246153 1.256841,-0.317888 0.414061,-0.07498 0.820009,-0.11247 1.217779,-0.112478 0.873808,8e-6 1.55195,0.192368 2.034498,0.577083 0.485788,0.384729 0.728722,0.921025 0.728722,1.608968 0,0.397771 -0.102705,0.769429 -0.308101,1.115046 -0.20541,0.342348 -0.637406,0.802052 -1.295974,1.379106 l -1.560106,1.369376" />
  <path
     style="fill:#ffffff;stroke-width:0.71541506"
     inkscape:connector-curvature="0"
     id="path1205"
     d="m 40.317519,52.504049 c -7e-6,-0.91287 -0.08641,-1.555169 -0.259202,-1.926899 -0.169539,-0.374935 -0.456449,-0.562402 -0.860716,-0.562409 -0.404288,7e-6 -0.692829,0.187474 -0.865652,0.562409 -0.172802,0.371687 -0.259202,1.013958 -0.259202,1.926899 0,0.922671 0.0864,1.573126 0.259202,1.951295 0.172794,0.378204 0.461335,0.567302 0.865652,0.567302 0.401019,0 0.687929,-0.189098 0.860716,-0.567302 0.172794,-0.378197 0.259195,-1.028624 0.259202,-1.951295 m 1.882829,0.01467 c -7e-6,1.209624 -0.260833,2.14367 -0.782521,2.802281 -0.521659,0.655334 -1.261777,0.98298 -2.22029,0.98298 -0.961804,0 -1.703547,-0.32766 -2.225227,-0.98298 -0.52166,-0.65859 -0.782521,-1.592657 -0.782521,-2.802281 0,-1.212843 0.260826,-2.146961 0.782521,-2.802281 0.521652,-0.658589 1.263351,-0.987845 2.225227,-0.987916 0.958513,7e-6 1.69861,0.329298 2.22029,0.987916 0.521652,0.655335 0.78245,1.589438 0.782521,2.802281" />
  <path
     style="fill:#ffffff;stroke-width:0.71541506"
     inkscape:connector-curvature="0"
     id="path1207"
     d="m 47.278507,52.504049 c 0,-0.91287 -0.0864,-1.555169 -0.259195,-1.926899 -0.169546,-0.374935 -0.456456,-0.562402 -0.860715,-0.562409 -0.404289,7e-6 -0.69283,0.187474 -0.865653,0.562409 -0.172801,0.371687 -0.259202,1.013958 -0.259194,1.926899 -8e-6,0.922671 0.08639,1.573126 0.259194,1.951295 0.172795,0.378204 0.461336,0.567302 0.865653,0.567302 0.401018,0 0.687936,-0.189098 0.860715,-0.567302 0.172795,-0.378197 0.259195,-1.028624 0.259195,-1.951295 m 1.88283,0.01467 c -7e-6,1.209624 -0.260833,2.14367 -0.782521,2.802281 -0.521667,0.655334 -1.261778,0.98298 -2.220291,0.98298 -0.961804,0 -1.703546,-0.32766 -2.225227,-0.98298 -0.521659,-0.65859 -0.782521,-1.592657 -0.782521,-2.802281 0,-1.212843 0.260826,-2.146961 0.782521,-2.802281 0.521659,-0.658589 1.263423,-0.987845 2.225227,-0.987916 0.958513,7e-6 1.69861,0.329298 2.220291,0.987916 0.521652,0.655335 0.782449,1.589438 0.782521,2.802281" />
</svg>
